<svg xmlns="http://www.w3.org/2000/svg" viewBox="3623.2000000000003 834.4 1159.2 1164.8" id="svg2" version="1.1" style="max-height: 500px" width="1159.2" height="1164.8">
  <defs id="defs6"/>
  
  <g transform="matrix(1.3333333,0,0,-1.3333333,0,2800)" id="g8">
    <g transform="scale(0.1)" id="g10">
      <path id="path12" style="fill:#0a0a0a;fill-opacity:1;fill-rule:evenodd;stroke:none" d="M 21000,21000 H 42000 V 0 H 21000 v 21000"/>
      <path id="path14" style="fill:#0a0a0a;fill-opacity:1;fill-rule:evenodd;stroke:none" d="M 0,21000 H 21000 V 0 H 0 v 21000"/>
      <path id="path16" style="fill:#0a0a0a;fill-opacity:1;fill-rule:evenodd;stroke:none" d="m 10590.4,7049.4 v -367.3 c -30,-0.7 -60.2,-1 -90.4,-1 -1054.59,0 -2009.49,427.6 -2700.52,1118.5 -196.71,196.7 -372.05,414.8 -522.27,650.5 l 333.77,160.4 c 36.23,-55.1 74,-109.3 113.13,-162.3 102.8,-138.8 214.99,-268.8 335.05,-389 l 0.09,0.2 c 318.12,-318 698.38,-574.4 1120.93,-749.6 407.07,-168.5 852.92,-261.6 1319.82,-261.6 30.2,0 60.4,0.5 90.4,1.2 z m 0,1845 h -957.69 v 758.3 l -415.29,-207.1 v -978.3 h 1372.98 v 427.1 z m 0,3368.1 v 432.3 H 9217.42 v -2020.7 l 415.29,181.2 v 677.1 638.5 91.6 h 91.52 866.17 z m -90.4,2056.6 c 30.2,0 60.4,-0.4 90.4,-1 v -367.5 c -30,0.7 -60.2,1.2 -90.4,1.2 -466.9,0 -912.75,-93 -1319.82,-261.6 -422.55,-175.2 -802.54,-431.4 -1120.59,-749.4 l -0.34,-0.2 -0.09,-0.2 c -317.96,-317.8 -574.31,-698.1 -749.31,-1120.6 -168.67,-407 -261.64,-852.9 -261.64,-1319.8 0,-181 14.35,-360.4 41.96,-536.8 27.94,-179.1 69.63,-353.7 123.81,-522.1 l 32.05,-99.3 94.07,45 c 905.6,434.2 1807.68,864.4 2714.5,1297.4 l 52.2,24.8 v 1.4 l 483.6,231 v -444.6 C 9557.69,9999.1 8525.46,9502.3 7491.86,9006.7 l -85.96,-41.2 0.51,-1.2 -330,-158.4 c -253.1,510.5 -395.46,1085.7 -395.46,1694.1 0,1054.4 427.5,2009.4 1118.53,2700.5 691.03,691 1646.01,1118.6 2700.52,1118.6 z m 90.4,-7637 v 367.3 c 434,11.3 848.7,102.9 1229.5,260.4 422.4,175.2 802.4,431.4 1120.6,749.4 l 0.1,0.2 0.2,0.2 c 318,318 574.2,698.1 749.3,1120.6 168.6,407 261.6,853.1 261.6,1319.8 0,114 -5.8,228.8 -17.2,343.7 -11.4,114.1 -28.4,227.4 -50.8,339.6 l -23.5,116.9 -106.6,-53 -1346.9,-670.6 -79.6,-39.7 37.8,-80.7 c 42,-90 74.3,-185.5 96.2,-284.7 v -0.3 c 21.5,-98.3 32.6,-200 32.6,-303.5 0,-184.8 -36.2,-364.7 -105.6,-531.2 -69.4,-166.1 -172,-319.7 -304.5,-452.3 l -0.1,0.1 c -132.2,-131.9 -287.2,-237.5 -455.6,-309.3 -163.2,-69.6 -340.2,-107.7 -521.6,-107.7 h -515.9 v 427.1 h 496.3 l 2.1,0.3 c 266.7,6.9 507.7,122.4 682,301.7 175.9,181 284.7,426.9 284.7,691.8 0,217.2 -61.7,390.5 -160.6,533 v 0.4 c -66.1,95.1 -148.5,175.3 -240.1,244.9 l 1921.7,957.7 492.7,236.8 c 161.4,-422.8 249.7,-881.5 249.7,-1361 0,-1054.4 -427.6,-2009.3 -1118.5,-2700.4 -671.3,-671.1 -1591.3,-1093.7 -2610,-1117.5 z m 0,4259.3 v -444.6 l 363.7,175.1 c 188.8,91.1 370.7,196.9 513.6,332.8 138.1,131.2 241.6,292.7 281.2,499.3 6.3,32.5 11,64.8 13.9,96.2 2.9,30.3 4.3,63.5 4.3,99.3 0,133.2 -26.4,262.9 -76.1,381.3 h -0.3 c -50.1,119.1 -123.6,227.8 -217.2,318.6 l -1.6,1.7 c -91.2,94.1 -199.9,167.6 -318.4,217.4 l -0.2,-0.2 c -119,49.9 -248.8,76.5 -381.3,76.5 h -181.6 v -432.3 h 172.8 l 3.9,-0.5 c 163.9,-7 310,-76.8 415.1,-184.3 105.8,-108.3 170.3,-255.6 170.3,-417 0,-61.7 -9.9,-122 -28.3,-179.2 -18.9,-58.5 -46.5,-113.3 -81.6,-162.4 l -3.9,-4.9 c -23.8,-28.9 -49.8,-55.6 -77.5,-79 -28.2,-23.9 -58.3,-45.3 -90,-63.7 l -6.2,-3.4 -16.1,-7.7 0.1,-0.2 c -11.9,-5.8 -32.5,-16.1 -136.2,-64.6 l 0.1,-0.2 -322.5,-154 z m 0,3376.7 c 1018.7,-23.8 1938.7,-446.4 2610,-1117.6 282,-282.1 520.1,-608 703.2,-966.7 l -331.3,-159.3 c -57.6,112.1 -121.2,220.8 -190.2,325.4 -128.7,195 -276.7,376 -441.3,540.5 l -0.3,0.4 c -318.1,318 -698.2,574.4 -1120.6,749.4 -380.8,157.7 -795.5,249.1 -1229.5,260.4 v 367.5 0"/>
      <path id="path18" style="fill:#ffffff;fill-opacity:1;fill-rule:evenodd;stroke:none" d="m 31590.5,7049.4 v -367.3 c -30.1,-0.7 -60.3,-1 -90.5,-1 -1054.6,0 -2009.5,427.6 -2700.5,1118.5 -196.7,196.7 -372,414.8 -522.2,650.5 l 333.7,160.4 c 36.3,-55.1 73.9,-109.3 113.2,-162.3 102.7,-138.8 215,-268.8 334.9,-389 l 0.2,0.2 c 318.1,-318 698.3,-574.4 1120.8,-749.6 407.2,-168.5 853.1,-261.6 1319.9,-261.6 30.2,0 60.4,0.5 90.5,1.2 z m 0,1845 h -957.7 v 758.3 l -415.3,-207.1 v -978.3 h 1373 v 427.1 z m 0,3368.1 v 432.3 h -1373 v -2020.7 l 415.3,181.2 v 677.1 638.5 91.6 h 91.5 866.2 z m -90.5,2056.6 c 30.2,0 60.4,-0.4 90.5,-1 v -367.5 c -30.1,0.7 -60.3,1.2 -90.5,1.2 -466.8,0 -912.7,-93 -1319.9,-261.6 -422.5,-175.2 -802.5,-431.4 -1120.5,-749.4 l -0.3,-0.2 -0.2,-0.2 c -317.8,-317.8 -574.2,-698.1 -749.2,-1120.6 -168.7,-407 -261.6,-852.9 -261.6,-1319.8 0,-181 14.3,-360.4 41.9,-536.8 27.9,-179.1 69.6,-353.7 123.8,-522.1 l 32.1,-99.3 94,45 c 905.6,434.2 1807.6,864.4 2714.5,1297.4 l 52.2,24.8 v 1.4 l 483.7,231 v -444.6 c -1032.8,-497.7 -2065,-994.5 -3098.7,-1490.1 l -85.9,-41.2 0.6,-1.2 -330.1,-158.4 c -253.1,510.5 -395.4,1085.7 -395.4,1694.1 0,1054.4 427.4,2009.4 1118.5,2700.5 691,691 1646,1118.6 2700.5,1118.6 z m 90.5,-7637 v 367.3 c 434,11.3 848.7,102.9 1229.3,260.4 422.6,175.2 802.6,431.4 1120.6,749.4 l 0.3,0.2 0.1,0.2 c 317.9,318 574.3,698.1 749.3,1120.6 168.6,407 261.6,853.1 261.6,1319.8 0,114 -5.9,228.8 -17.2,343.7 -11.3,114.1 -28.4,227.4 -50.8,339.6 l -23.4,116.9 -106.7,-53 -1346.8,-670.6 -79.7,-39.7 37.8,-80.7 c 42.1,-90 74.4,-185.5 96.1,-284.7 v -0.3 c 21.7,-98.3 32.7,-200 32.7,-303.5 0,-184.8 -36.2,-364.7 -105.6,-531.2 -69.4,-166.1 -172,-319.7 -304.6,-452.3 l -0.1,0.1 c -132.1,-131.9 -287.1,-237.5 -455.4,-309.3 -163.2,-69.6 -340.3,-107.7 -521.7,-107.7 h -515.8 v 427.1 h 496.3 l 2,0.3 c 266.8,6.9 507.7,122.4 682.1,301.7 175.8,181 284.7,426.9 284.7,691.8 0,217.2 -61.7,390.5 -160.7,533 v 0.4 c -66.1,95.1 -148.6,175.3 -240.1,244.9 l 1921.6,957.7 492.9,236.8 c 161.3,-422.8 249.7,-881.5 249.7,-1361 0,-1054.4 -427.6,-2009.3 -1118.6,-2700.4 C 33529.1,7128.5 32609,6705.9 31590.5,6682.1 Z m 0,4259.3 v -444.6 l 363.6,175.1 c 188.9,91.1 370.7,196.9 513.6,332.8 138.1,131.2 241.6,292.7 281.3,499.3 6.2,32.5 10.9,64.8 13.8,96.2 2.9,30.3 4.3,63.5 4.3,99.3 0,133.2 -26.4,262.9 -76,381.3 h -0.4 c -50.1,119.1 -123.5,227.8 -217.2,318.6 l -1.5,1.7 c -91.3,94.1 -200,167.6 -318.4,217.4 l -0.3,-0.2 c -119.1,49.9 -248.7,76.5 -381.2,76.5 h -181.6 v -432.3 h 172.8 l 3.9,-0.5 c 163.9,-7 310,-76.8 415.1,-184.3 105.8,-108.3 170.2,-255.6 170.2,-417 0,-61.7 -9.9,-122 -28.3,-179.2 -18.9,-58.5 -46.5,-113.3 -81.6,-162.4 l -3.8,-4.9 c -23.9,-28.9 -49.8,-55.6 -77.6,-79 -28.1,-23.9 -58.2,-45.3 -90,-63.7 l -6.1,-3.4 -16.1,-7.7 0.1,-0.2 c -12.1,-5.8 -32.6,-16.1 -136.2,-64.6 l 0.1,-0.2 -322.5,-154 z m 0,3376.7 c 1018.5,-23.8 1938.6,-446.4 2609.9,-1117.6 282,-282.1 520.1,-608 703.3,-966.7 l -331.5,-159.3 c -57.5,112.1 -121,220.8 -190.1,325.4 -128.7,195 -276.7,376 -441.3,540.5 l -0.4,0.4 c -317.9,318 -698,574.4 -1120.6,749.4 -380.6,157.7 -795.3,249.1 -1229.3,260.4 v 367.5 0"/>
    </g>
  </g>
</svg>
