<svg viewBox="388 184 220 260" xmlns="http://www.w3.org/2000/svg" style="max-height: 500px" width="220" height="260">
  <defs>
    <style>
      .uuid-12c597f3-7bd5-4a79-86dc-f68aee9ab600 {
        fill-rule: evenodd;
      }

      .uuid-12c597f3-7bd5-4a79-86dc-f68aee9ab600, .uuid-03a52de3-f47f-4afc-8530-cabf615fab30, .uuid-bfa26d4e-5bb1-4665-992d-8f8996809bac, .uuid-dc832e68-3bcc-47fe-bbb8-48b53c0edc26, .uuid-94a2c89b-a8a3-45a8-93cc-8085c9610ac0, .uuid-ac316913-1d6b-4c16-89ab-e710088bddde, .uuid-eeaeac59-6638-482a-8618-070de4e02adb, .uuid-285062fd-3764-4b00-b16a-759037e655fa {
        stroke-width: 0px;
      }

      .uuid-12c597f3-7bd5-4a79-86dc-f68aee9ab600, .uuid-285062fd-3764-4b00-b16a-759037e655fa {
        fill: black;
      }

      .uuid-03a52de3-f47f-4afc-8530-cabf615fab30 {
        fill: #0a0a0a;
      }

      .uuid-bfa26d4e-5bb1-4665-992d-8f8996809bac {
        fill: white;
      }

      .uuid-e674f6f2-10da-475f-addf-06b0205dc6b2 {
        isolation: isolate;
      }

      .uuid-dc832e68-3bcc-47fe-bbb8-48b53c0edc26 {
        fill: white;
      }

      .uuid-94a2c89b-a8a3-45a8-93cc-8085c9610ac0 {
        fill: white;
      }

      .uuid-ac316913-1d6b-4c16-89ab-e710088bddde {
        fill: #000;
        mix-blend-mode: multiply;
        opacity: .1;
      }

      .uuid-eeaeac59-6638-482a-8618-070de4e02adb {
        fill: none;
      }
    </style>
  </defs>
  <g class="uuid-e674f6f2-10da-475f-addf-06b0205dc6b2">
    <g data-name="background" id="uuid-bcc6d172-f9e2-42fb-8725-ab8ac8f9ee9d">
      <rect height="1000" width="1000" class="uuid-03a52de3-f47f-4afc-8530-cabf615fab30"/>
      <g>
        <path d="M492.9,689.72c0-.64-.21-1.12-.63-1.44-.42-.32-1-.49-1.76-.49h-2.94v3.87h2.96c.72,0,1.3-.18,1.73-.53.43-.35.64-.82.64-1.42Z" class="uuid-94a2c89b-a8a3-45a8-93cc-8085c9610ac0"/>
        <path d="M0,675.16v1.33h423.93c9.4,0,17.03,7.62,17.03,17.03v4.31c0,6,4.86,10.86,10.86,10.86h96.36c6,0,10.86-4.86,10.86-10.86v-4.31c0-9.4,7.62-17.03,17.03-17.03h423.93v-1.33H0ZM475.14,687.8h-6.53v3.16h5.79v1.82h-5.79v4.67h-2v-11.48h8.53v1.82ZM492.93,697.45l-2.83-4h-2.53v4h-2v-11.48h5.12c.66,0,1.25.08,1.78.25.53.17.98.41,1.34.72.37.31.65.69.84,1.15.2.45.29.96.29,1.52,0,.48-.07.91-.2,1.29-.14.38-.33.71-.57,1-.24.29-.53.54-.86.74-.33.2-.7.36-1.11.47l3.1,4.34h-2.38ZM514.2,697.45h-8.57v-11.48h8.49v1.82h-6.49v2.95h5.75v1.82h-5.75v3.07h6.57v1.82ZM533.38,697.45h-8.57v-11.48h8.49v1.82h-6.49v2.95h5.75v1.82h-5.75v3.07h6.57v1.82Z" class="uuid-94a2c89b-a8a3-45a8-93cc-8085c9610ac0"/>
      </g>
    </g>
    <g data-name="business card" id="uuid-59d4271f-6440-41c2-bac2-ed6e652a2889">
      <g>
        <g>
          <rect ry="20.72" rx="20.72" height="187.36" width="299.65" y="760.59" x="565.41" class="uuid-ac316913-1d6b-4c16-89ab-e710088bddde"/>
          <path d="M569.37,754.45h272.71c7.48,0,13.55,6.07,13.55,13.55v154.11c0,7.48-6.07,13.55-13.55,13.55h-272.71c-7.48,0-13.55-6.07-13.55-13.55v-154.11c0-7.48,6.07-13.55,13.55-13.55Z" class="uuid-94a2c89b-a8a3-45a8-93cc-8085c9610ac0"/>
        </g>
        <rect ry="20.72" rx="20.72" height="187.36" width="299.65" y="760.28" x="144.6" class="uuid-ac316913-1d6b-4c16-89ab-e710088bddde"/>
        <path d="M434.82,767.99v154.11c0,.49-.03.98-.08,1.46-.73,6.79-6.48,12.09-13.47,12.09H148.56c-7.48,0-13.55-6.07-13.55-13.55v-154.11c0-7.48,6.07-13.54,13.55-13.54h272.71c6.98,0,12.74,5.28,13.47,12.08.05.48.08.96.08,1.46Z" class="uuid-285062fd-3764-4b00-b16a-759037e655fa"/>
        <path d="M434.74,892.85v28.94c0,7.48-6.06,13.55-13.55,13.55H148.48c-7.48,0-13.55-6.06-13.55-13.55v-9.57h141.07c5.62,0,10.98-2.39,14.74-6.58l5.56-6.21c3.75-4.19,9.11-6.58,14.74-6.58h123.7Z" class="uuid-eeaeac59-6638-482a-8618-070de4e02adb"/>
        <path d="M434.74,892.85v28.94c0,7.48-6.06,13.55-13.55,13.55H148.48c-7.48,0-13.55-6.06-13.55-13.55v-9.57h141.07c5.62,0,10.98-2.39,14.74-6.58l5.56-6.21c3.75-4.19,9.11-6.58,14.74-6.58h123.7Z" class="uuid-eeaeac59-6638-482a-8618-070de4e02adb"/>
        <rect height="1" width="299.81" y="897.87" x="555.82" class="uuid-285062fd-3764-4b00-b16a-759037e655fa"/>
        <g>
          <path d="M677.01,863.54h1.32v6.61h3.99v1.25h-5.31v-7.86Z" class="uuid-285062fd-3764-4b00-b16a-759037e655fa"/>
          <path d="M690.58,869.03c-.19.49-.47.93-.82,1.3-.35.37-.77.66-1.26.88-.48.22-1.02.33-1.6.33s-1.12-.11-1.6-.32c-.48-.21-.9-.5-1.25-.87-.35-.37-.62-.8-.81-1.29-.19-.49-.29-1.02-.29-1.57s.1-1.08.29-1.57c.2-.49.47-.93.82-1.3.35-.37.77-.66,1.26-.88.48-.22,1.02-.33,1.6-.33s1.12.11,1.6.32c.48.21.9.5,1.25.87.35.37.62.8.81,1.29.19.49.29,1.02.29,1.57s-.1,1.08-.29,1.57ZM689.29,866.4c-.13-.34-.3-.64-.53-.89-.23-.25-.5-.46-.82-.61-.32-.15-.66-.22-1.04-.22s-.72.07-1.03.22c-.31.15-.58.34-.81.6-.22.25-.4.55-.53.89-.13.34-.19.7-.19,1.08s.06.74.19,1.08c.13.34.3.64.53.89.23.25.5.46.82.61.32.15.66.22,1.04.22s.72-.07,1.03-.22.58-.34.81-.59c.22-.25.4-.55.53-.89.13-.34.19-.7.19-1.08s-.06-.74-.19-1.08Z" class="uuid-285062fd-3764-4b00-b16a-759037e655fa"/>
          <path d="M697.35,871.4l-1.87-2.74h-1.67v2.74h-1.32v-7.86h3.38c.43,0,.82.06,1.18.17.35.12.65.28.89.49.24.21.43.48.56.79.13.31.19.66.19,1.04,0,.33-.05.62-.14.88-.09.26-.21.49-.37.68-.16.2-.35.37-.57.51-.22.14-.46.25-.73.32l2.05,2.98h-1.57ZM696.92,865.12c-.28-.22-.66-.33-1.16-.33h-1.94v2.65h1.96c.48,0,.86-.12,1.14-.36.28-.24.42-.56.42-.97,0-.44-.14-.76-.41-.99Z" class="uuid-285062fd-3764-4b00-b16a-759037e655fa"/>
          <path d="M705.93,864.79h-4.29v2.02h3.8v1.25h-3.8v2.1h4.34v1.25h-5.66v-7.86h5.61v1.25Z" class="uuid-285062fd-3764-4b00-b16a-759037e655fa"/>
          <path d="M711.31,869.47h-.04l-2.37-3.68v5.61h-1.32v-7.86h1.42l2.31,3.72,2.31-3.72h1.42v7.86h-1.32v-5.64l-2.39,3.71Z" class="uuid-285062fd-3764-4b00-b16a-759037e655fa"/>
          <path d="M721.62,863.54v7.86h-1.32v-7.86h1.32Z" class="uuid-285062fd-3764-4b00-b16a-759037e655fa"/>
          <path d="M729.29,867.35c-.16.34-.38.62-.65.84s-.6.39-.97.51c-.37.12-.76.17-1.18.17h-1.51v2.53h-1.32v-7.86h2.99c.44,0,.84.06,1.2.19.36.12.66.3.91.53.25.23.44.51.57.83.13.32.2.68.2,1.09,0,.44-.08.83-.24,1.17ZM727.73,865.14c-.3-.24-.7-.36-1.2-.36h-1.55v2.84h1.55c.51,0,.91-.13,1.2-.39.29-.26.44-.6.44-1.03,0-.47-.15-.83-.45-1.07Z" class="uuid-285062fd-3764-4b00-b16a-759037e655fa"/>
          <path d="M732.08,866c.05.11.14.22.28.31.13.1.32.19.55.27.24.08.53.17.9.26.4.1.75.22,1.06.35.31.13.56.28.77.47.2.18.36.4.46.64.1.24.16.53.16.86,0,.37-.07.71-.2,1-.13.29-.32.54-.55.74-.24.2-.52.36-.85.46-.33.1-.7.16-1.09.16-.58,0-1.14-.1-1.68-.31-.53-.21-1.03-.52-1.48-.95l.8-.99c.37.33.74.58,1.12.76.38.18.8.26,1.28.26.41,0,.74-.09.98-.27.24-.18.36-.42.36-.73,0-.14-.02-.27-.07-.38-.05-.11-.13-.22-.26-.31-.13-.09-.3-.18-.52-.26-.22-.08-.51-.17-.86-.26-.41-.1-.77-.21-1.08-.33-.31-.12-.58-.27-.79-.45s-.38-.4-.49-.65-.17-.57-.17-.93c0-.34.06-.66.19-.94.13-.28.31-.52.53-.72.23-.2.5-.36.81-.47.32-.11.66-.16,1.04-.16.56,0,1.06.08,1.5.25.44.17.86.41,1.25.74l-.71,1.04c-.35-.26-.69-.46-1.03-.6-.34-.14-.68-.21-1.03-.21-.39,0-.69.09-.91.27-.22.18-.32.41-.32.67,0,.16.03.29.08.4Z" class="uuid-285062fd-3764-4b00-b16a-759037e655fa"/>
          <path d="M744.19,868c0,.58-.08,1.1-.23,1.54-.16.44-.37.81-.66,1.11-.28.3-.62.52-1.02.66-.4.15-.85.22-1.35.22s-.94-.07-1.33-.22c-.4-.15-.74-.36-1.02-.66-.28-.29-.5-.65-.65-1.08-.15-.43-.23-.93-.23-1.5v-4.52h1.32v4.47c0,.73.17,1.29.51,1.67.34.38.81.57,1.42.57s1.06-.18,1.41-.55c.34-.37.51-.91.51-1.64v-4.52h1.32v4.46Z" class="uuid-285062fd-3764-4b00-b16a-759037e655fa"/>
          <path d="M749.76,869.47h-.04l-2.37-3.68v5.61h-1.32v-7.86h1.42l2.31,3.72,2.31-3.72h1.42v7.86h-1.32v-5.64l-2.39,3.71Z" class="uuid-285062fd-3764-4b00-b16a-759037e655fa"/>
        </g>
        <path d="M434.8,766.53v157.03c-.73,6.79-6.48,12.09-13.47,12.09h-136.36v-181.2h136.36c6.98,0,12.74,5.28,13.47,12.08Z" class="uuid-94a2c89b-a8a3-45a8-93cc-8085c9610ac0"/>
        <g>
          <path d="M311.98,915.36c-2.75,0-4.99,2.24-4.99,4.99s2.24,4.99,4.99,4.99,4.99-2.24,4.99-4.99-2.24-4.99-4.99-4.99ZM314.23,921.6c.04-.4.07-.82.07-1.25s-.02-.86-.07-1.25c1.24.31,1.94.84,1.94,1.25s-.71.95-1.94,1.25ZM311.98,924.53c-.42,0-.95-.71-1.25-1.94.4.04.82.07,1.25.07s.86-.02,1.25-.07c-.31,1.24-.84,1.94-1.25,1.94ZM311.98,921.86c-.51,0-.98-.03-1.41-.09-.06-.43-.09-.9-.09-1.41s.03-.98.09-1.41c.43-.06.9-.09,1.41-.09s.98.03,1.41.09c.06.43.09.9.09,1.41s-.03.98-.09,1.41c-.43.06-.9.09-1.41.09ZM307.8,920.35c0-.42.71-.95,1.94-1.25-.04.4-.07.82-.07,1.25s.02.86.07,1.25c-1.24-.31-1.94-.84-1.94-1.25ZM311.98,916.16c.42,0,.95.71,1.25,1.94-.4-.04-.82-.07-1.25-.07s-.86.02-1.25.07c.31-1.24.84-1.94,1.25-1.94ZM315.91,918.89c-.48-.28-1.09-.5-1.81-.65-.15-.72-.37-1.33-.65-1.81,1.13.42,2.03,1.33,2.46,2.46ZM310.52,916.43c-.28.48-.5,1.09-.65,1.81-.72.15-1.33.37-1.81.65.42-1.13,1.33-2.03,2.46-2.46ZM308.06,921.81c.48.28,1.09.5,1.81.65.15.72.37,1.33.65,1.81-1.13-.42-2.03-1.33-2.46-2.46ZM313.45,924.27c.28-.48.5-1.09.65-1.81.72-.15,1.33-.37,1.81-.65-.42,1.13-1.33,2.03-2.46,2.46Z" class="uuid-285062fd-3764-4b00-b16a-759037e655fa"/>
          <g>
            <path d="M329.7,920.28c-.09.27-.17.55-.24.78h-.02c-.06-.22-.15-.51-.24-.76l-.81-2.2h-.74l1.38,3.43c.03.08.05.14.05.18s-.02.09-.05.16c-.15.35-.38.61-.57.75-.2.17-.42.28-.59.33l.17.57c.17-.03.5-.15.83-.44.46-.4.79-1.05,1.28-2.33l1.01-2.65h-.71l-.74,2.18Z" class="uuid-285062fd-3764-4b00-b16a-759037e655fa"/>
            <path d="M333.27,918.02c-1.03,0-1.84.73-1.84,1.98,0,1.18.78,1.91,1.78,1.91.9,0,1.85-.6,1.85-1.98,0-1.14-.72-1.91-1.79-1.91ZM333.24,921.4c-.66,0-1.13-.61-1.13-1.43,0-.71.35-1.45,1.15-1.45s1.11.8,1.11,1.43c0,.84-.48,1.45-1.13,1.45Z" class="uuid-285062fd-3764-4b00-b16a-759037e655fa"/>
            <path d="M339.02,918.1h-.68v2.28c0,.12-.02.25-.06.35-.12.3-.44.61-.89.61-.61,0-.83-.48-.83-1.18v-2.06h-.68v2.18c0,1.31.7,1.63,1.28,1.63.66,0,1.05-.39,1.23-.69h.02l.04.61h.6c-.02-.29-.03-.63-.03-1.01v-2.71Z" class="uuid-285062fd-3764-4b00-b16a-759037e655fa"/>
            <path d="M340.76,918.83h-.03l-.02-.73h-.59c.02.35.03.72.03,1.16v2.56h.67v-1.98c0-.12.02-.22.03-.32.09-.51.43-.87.91-.87.09,0,.16,0,.23.02v-.64c-.06-.02-.12-.02-.19-.02-.45,0-.86.32-1.03.81Z" class="uuid-285062fd-3764-4b00-b16a-759037e655fa"/>
            <path d="M346.63,919.97c-.12.44-.22.83-.28,1.21h-.02c-.08-.38-.19-.77-.33-1.21l-.58-1.86h-.57l-.61,1.9c-.12.4-.25.8-.33,1.18h-.02c-.07-.38-.17-.77-.28-1.18l-.49-1.89h-.69l1.12,3.72h.61l.6-1.77c.13-.4.25-.78.34-1.23h.02c.09.44.2.81.33,1.22l.57,1.78h.61l1.2-3.72h-.67l-.53,1.87Z" class="uuid-285062fd-3764-4b00-b16a-759037e655fa"/>
            <path d="M349.9,918.02c-1.08,0-1.74.88-1.74,2.01s.68,1.88,1.83,1.88c.59,0,1-.12,1.24-.23l-.12-.48c-.25.11-.55.19-1.03.19-.68,0-1.26-.38-1.28-1.29h2.61c0-.07.02-.18.02-.32,0-.68-.32-1.75-1.54-1.75ZM348.81,919.6c.05-.47.35-1.1,1.04-1.1.76,0,.95.67.94,1.1h-1.98Z" class="uuid-285062fd-3764-4b00-b16a-759037e655fa"/>
            <path d="M354.23,918.02c-.6,0-1.03.27-1.27.68h-.02v-2.34h-.67v4.5c0,.33-.02.71-.03.96h.58l.03-.61h.02c.28.49.71.7,1.25.7.83,0,1.67-.66,1.67-1.99,0-1.13-.65-1.9-1.57-1.9ZM353.99,921.37c-.49,0-.88-.32-1.01-.79-.02-.08-.03-.16-.03-.25v-.67c0-.11.02-.2.04-.28.14-.52.57-.83,1.03-.83.72,0,1.11.64,1.11,1.38,0,.85-.42,1.43-1.13,1.43Z" class="uuid-285062fd-3764-4b00-b16a-759037e655fa"/>
            <path d="M357.84,919.66c-.48-.18-.71-.32-.71-.63,0-.28.22-.51.62-.51.35,0,.61.12.76.22l.17-.49c-.21-.12-.54-.23-.91-.23-.8,0-1.28.49-1.28,1.09,0,.45.32.81.98,1.05.5.18.69.36.69.68s-.23.55-.72.55c-.34,0-.69-.14-.89-.27l-.17.51c.26.15.64.25,1.05.25.88,0,1.39-.46,1.39-1.11,0-.55-.33-.88-.98-1.12Z" class="uuid-285062fd-3764-4b00-b16a-759037e655fa"/>
            <path d="M360.03,916.63c-.25,0-.42.18-.42.42s.17.41.41.41c.27,0,.44-.18.43-.41,0-.24-.16-.42-.41-.42Z" class="uuid-285062fd-3764-4b00-b16a-759037e655fa"/>
            <rect height="3.72" width=".68" y="918.1" x="359.69" class="uuid-285062fd-3764-4b00-b16a-759037e655fa"/>
            <path d="M362.3,917.03l-.66.18v.89h-.58v.51h.58v2.03c0,.44.07.77.26.97.16.18.42.28.73.28.26,0,.47-.04.6-.09l-.03-.51c-.08.02-.22.05-.39.05-.38,0-.51-.26-.51-.72v-2.01h.97v-.51h-.97v-1.07Z" class="uuid-285062fd-3764-4b00-b16a-759037e655fa"/>
            <path d="M365.46,918.02c-1.08,0-1.74.88-1.74,2.01s.68,1.88,1.83,1.88c.59,0,1-.12,1.24-.23l-.12-.48c-.25.11-.55.19-1.03.19-.68,0-1.26-.38-1.28-1.29h2.61c0-.07.02-.18.02-.32,0-.68-.32-1.75-1.54-1.75ZM364.37,919.6c.05-.47.35-1.1,1.04-1.1.76,0,.95.67.94,1.1h-1.98Z" class="uuid-285062fd-3764-4b00-b16a-759037e655fa"/>
            <path d="M369.7,918.02c-.25,0-.49.08-.69.19-.21.12-.38.28-.48.48h-.02v-2.32h-.68v5.46h.68v-2.24c0-.13,0-.23.05-.32.12-.37.47-.68.91-.68.64,0,.86.51.86,1.11v2.14h.68v-2.21c0-1.28-.8-1.59-1.3-1.59Z" class="uuid-285062fd-3764-4b00-b16a-759037e655fa"/>
            <path d="M373.57,918.02c-1.08,0-1.74.88-1.74,2.01s.68,1.88,1.83,1.88c.59,0,1-.12,1.24-.23l-.12-.48c-.25.11-.55.19-1.03.19-.68,0-1.26-.38-1.28-1.29h2.61c0-.07.02-.18.02-.32,0-.68-.32-1.75-1.54-1.75ZM372.48,919.6c.05-.47.35-1.1,1.04-1.1.76,0,.95.67.94,1.1h-1.98Z" class="uuid-285062fd-3764-4b00-b16a-759037e655fa"/>
            <path d="M376.56,918.83h-.03l-.02-.73h-.59c.02.35.03.72.03,1.16v2.56h.67v-1.98c0-.12.02-.22.03-.32.09-.51.43-.87.91-.87.09,0,.16,0,.23.02v-.64c-.06-.02-.12-.02-.19-.02-.45,0-.86.32-1.03.81Z" class="uuid-285062fd-3764-4b00-b16a-759037e655fa"/>
            <path d="M381.39,919.77c0-.68-.32-1.75-1.54-1.75-1.08,0-1.74.88-1.74,2.01s.68,1.88,1.83,1.88c.59,0,1-.12,1.24-.23l-.12-.48c-.25.11-.55.19-1.03.19-.68,0-1.26-.38-1.28-1.29h2.61c0-.07.02-.18.02-.32ZM378.76,919.6c.05-.47.35-1.1,1.04-1.1.76,0,.95.67.94,1.1h-1.98Z" class="uuid-285062fd-3764-4b00-b16a-759037e655fa"/>
          </g>
          <path d="M315.77,866.25c-.97-.97-2.32-1.58-3.79-1.58s-2.79.61-3.76,1.58c-.97.97-1.58,2.3-1.58,3.76s.61,2.82,1.58,3.79c.97.97,2.3,1.55,3.76,1.55s2.82-.58,3.79-1.55c.97-.97,1.55-2.32,1.55-3.79s-.58-2.79-1.55-3.76h0ZM311.98,865.67c2.41,0,4.34,1.94,4.34,4.34s-1.94,4.34-4.34,4.34-4.34-1.94-4.34-4.34,1.94-4.34,4.34-4.34h0ZM309.44,868.33c.17-.33.36-.66.66-.94.14.14.28.28.39.44.22.28.36.61.41,1.02l-.06.06c-.28.19-.11.72.53,1.58.64.86,1.08,1.19,1.36,1l.08-.06c.36.19.66.41.86.69.11.17.22.36.28.58-.33.17-.72.28-1.11.3-.39-.25-.75-.55-1.11-.88-.33-.36-.66-.72-.97-1.16-.33-.41-.58-.86-.8-1.3-.22-.44-.39-.89-.53-1.33h0ZM310.21,867.28l.14-.08c.17-.14.33-.19.44-.17.11.03.25.14.39.36.41.55.41.97,0,1.27l-.11.08c-.06-.36-.19-.72-.41-1.02-.14-.17-.28-.3-.44-.44h0ZM312.95,871.31l.11-.08c.22-.17.44-.22.64-.14.19.06.41.22.61.5.17.22.22.39.22.5-.03.14-.14.28-.33.41l-.11.08c-.08-.25-.17-.44-.28-.58-.22-.3-.5-.53-.86-.69h0Z" class="uuid-12c597f3-7bd5-4a79-86dc-f68aee9ab600"/>
          <path d="M315.88,883.55c-.97-.97-2.32-1.55-3.79-1.55s-2.79.58-3.76,1.55c-.97.97-1.58,2.3-1.58,3.79s.61,2.79,1.58,3.76c.97.97,2.3,1.58,3.76,1.58s2.82-.61,3.79-1.58c.97-.97,1.55-2.3,1.55-3.76s-.58-2.82-1.55-3.79h0ZM312.09,883c2.41,0,4.34,1.94,4.34,4.34s-1.94,4.34-4.34,4.34-4.34-1.96-4.34-4.34,1.94-4.34,4.34-4.34h0ZM314.58,885.6l-1.63,1.27c-.28.25-.55.36-.8.39-.28,0-.53-.08-.8-.33l-1.59-1.33s4.77-.03,4.82,0ZM314.97,885.82v2.96c0,.17-.11.28-.25.28h-5.23c-.17,0-.28-.11-.28-.28v-2.93l1.27,1.05.69.55h0c.33.28.64.39.94.39.3-.03.61-.17.94-.44h0l.66-.53,1.24-1.05Z" class="uuid-12c597f3-7bd5-4a79-86dc-f68aee9ab600"/>
          <path d="M313.81,903.27c-.19,1.33-1.3,3.04-1.58,3.79-.11.25-.39.28-.47.03-.3-.75-1.41-2.49-1.6-3.82-.17-1.24.8-2.13,1.8-2.1,1,0,2.02.88,1.85,2.1h0ZM311.98,902.08c.55,0,1,.44,1,.97,0,.55-.44,1-1,1s-1-.44-1-1,.44-.97,1-.97h0ZM315.74,900.43c-.97-.97-2.3-1.55-3.76-1.55s-2.82.58-3.79,1.55c-.94.97-1.55,2.3-1.55,3.79s.61,2.79,1.55,3.76c.97.97,2.32,1.58,3.79,1.58s2.79-.61,3.76-1.58c.97-.97,1.58-2.3,1.58-3.76s-.61-2.82-1.58-3.79h0ZM311.98,899.87c2.41,0,4.34,1.94,4.34,4.34s-1.94,4.34-4.34,4.34-4.34-1.96-4.34-4.34,1.94-4.34,4.34-4.34h0Z" class="uuid-12c597f3-7bd5-4a79-86dc-f68aee9ab600"/>
          <g>
            <path d="M326.23,868.09l.82,2.2c.08.25.18.54.24.76h.02c.07-.22.15-.51.24-.78l.74-2.19h.72l-1.02,2.66c-.49,1.28-.82,1.93-1.28,2.33-.33.29-.66.41-.83.44l-.17-.57c.17-.05.39-.16.59-.33.18-.15.42-.41.57-.75.03-.07.05-.12.05-.16s-.02-.09-.05-.18l-1.38-3.44h.74Z" class="uuid-285062fd-3764-4b00-b16a-759037e655fa"/>
            <path d="M332.91,869.92c0,1.38-.96,1.98-1.86,1.98-1.01,0-1.79-.74-1.79-1.92,0-1.25.82-1.98,1.85-1.98s1.8.78,1.8,1.92ZM329.95,869.96c0,.82.47,1.43,1.13,1.43s1.13-.61,1.13-1.45c0-.63-.32-1.43-1.12-1.43s-1.15.74-1.15,1.45Z" class="uuid-285062fd-3764-4b00-b16a-759037e655fa"/>
            <path d="M336.88,870.8c0,.39,0,.72.03,1.02h-.6l-.04-.61h-.02c-.18.3-.57.69-1.23.69-.59,0-1.29-.32-1.29-1.63v-2.18h.68v2.07c0,.71.22,1.19.83,1.19.45,0,.77-.32.89-.62.04-.1.06-.22.06-.35v-2.29h.68v2.71Z" class="uuid-285062fd-3764-4b00-b16a-759037e655fa"/>
            <path d="M338,869.25c0-.44,0-.82-.03-1.16h.59l.02.73h.03c.17-.5.58-.82,1.03-.82.08,0,.13,0,.19.02v.64c-.07-.02-.14-.02-.23-.02-.48,0-.82.36-.91.87-.02.09-.03.2-.03.32v1.99h-.67v-2.57Z" class="uuid-285062fd-3764-4b00-b16a-759037e655fa"/>
            <path d="M342.15,869.1c0-.39,0-.7-.03-1.01h.6l.04.62h.02c.18-.35.62-.7,1.23-.7.52,0,1.32.31,1.32,1.59v2.23h-.68v-2.15c0-.6-.22-1.1-.86-1.1-.45,0-.79.32-.91.69-.03.08-.05.2-.05.32v2.24h-.68v-2.72Z" class="uuid-285062fd-3764-4b00-b16a-759037e655fa"/>
            <path d="M349.54,870.8c0,.39,0,.72.03,1.02h-.6l-.04-.61h-.02c-.18.3-.57.69-1.23.69-.59,0-1.29-.32-1.29-1.63v-2.18h.68v2.07c0,.71.22,1.19.83,1.19.45,0,.77-.32.89-.62.04-.1.06-.22.06-.35v-2.29h.68v2.71Z" class="uuid-285062fd-3764-4b00-b16a-759037e655fa"/>
            <path d="M350.66,869.1c0-.39,0-.7-.03-1.01h.59l.03.6h.02c.21-.35.56-.69,1.17-.69.51,0,.89.31,1.06.75h.02c.12-.21.26-.37.42-.49.22-.17.47-.26.82-.26.49,0,1.23.32,1.23,1.62v2.2h-.66v-2.11c0-.72-.26-1.15-.81-1.15-.39,0-.69.28-.8.62-.03.09-.05.22-.05.34v2.3h-.66v-2.23c0-.59-.26-1.02-.78-1.02-.42,0-.73.34-.84.68-.04.1-.05.22-.05.33v2.25h-.66v-2.72Z" class="uuid-285062fd-3764-4b00-b16a-759037e655fa"/>
            <path d="M357.05,871.82c.02-.25.03-.63.03-.96v-4.51h.67v2.34h.02c.24-.42.67-.69,1.27-.69.92,0,1.58.77,1.57,1.9,0,1.33-.84,2-1.67,2-.54,0-.97-.21-1.25-.7h-.02l-.03.62h-.59ZM357.76,870.32c0,.08.02.17.03.25.13.47.52.79,1.02.79.71,0,1.13-.58,1.13-1.43,0-.75-.39-1.39-1.11-1.39-.46,0-.89.32-1.03.83-.02.08-.04.17-.04.28v.67Z" class="uuid-285062fd-3764-4b00-b16a-759037e655fa"/>
            <path d="M361.84,870.08c.02.92.6,1.29,1.28,1.29.49,0,.78-.08,1.03-.19l.12.49c-.24.11-.65.23-1.24.23-1.15,0-1.83-.76-1.83-1.88s.66-2.01,1.75-2.01c1.22,0,1.54,1.07,1.54,1.76,0,.14-.02.25-.02.32h-2.62ZM363.83,869.59c0-.43-.18-1.1-.94-1.1-.69,0-.99.63-1.04,1.1h1.98Z" class="uuid-285062fd-3764-4b00-b16a-759037e655fa"/>
            <path d="M365.32,869.25c0-.44,0-.82-.03-1.16h.59l.02.73h.03c.17-.5.58-.82,1.03-.82.08,0,.13,0,.19.02v.64c-.07-.02-.14-.02-.23-.02-.48,0-.82.36-.91.87-.02.09-.03.2-.03.32v1.99h-.67v-2.57Z" class="uuid-285062fd-3764-4b00-b16a-759037e655fa"/>
          </g>
          <g>
            <path d="M328.01,885.92l.86,2.32c.09.26.19.57.25.8h.02c.07-.24.15-.54.25-.82l.78-2.31h.75l-1.07,2.8c-.51,1.35-.86,2.04-1.35,2.46-.35.31-.7.43-.88.46l-.18-.6c.18-.06.41-.17.62-.35.19-.15.44-.43.6-.8.03-.07.06-.13.06-.17s-.02-.1-.05-.19l-1.45-3.62h.78Z" class="uuid-285062fd-3764-4b00-b16a-759037e655fa"/>
            <path d="M335.05,887.86c0,1.45-1.01,2.09-1.96,2.09-1.06,0-1.88-.78-1.88-2.02,0-1.32.86-2.09,1.95-2.09s1.89.82,1.89,2.02ZM331.93,887.9c0,.86.5,1.51,1.19,1.51s1.19-.64,1.19-1.53c0-.67-.33-1.51-1.18-1.51s-1.21.78-1.21,1.53Z" class="uuid-285062fd-3764-4b00-b16a-759037e655fa"/>
            <path d="M339.23,888.78c0,.41,0,.76.03,1.07h-.63l-.04-.64h-.02c-.19.32-.6.73-1.3.73-.62,0-1.36-.34-1.36-1.72v-2.3h.71v2.18c0,.75.23,1.25.88,1.25.48,0,.81-.33.94-.65.04-.11.07-.24.07-.37v-2.41h.71v2.86Z" class="uuid-285062fd-3764-4b00-b16a-759037e655fa"/>
            <path d="M340.42,887.15c0-.46,0-.86-.03-1.23h.63l.02.77h.03c.18-.53.61-.86,1.09-.86.08,0,.14,0,.2.02v.67c-.07-.02-.15-.02-.24-.02-.5,0-.86.38-.96.92-.02.1-.03.21-.03.33v2.09h-.71v-2.7Z" class="uuid-285062fd-3764-4b00-b16a-759037e655fa"/>
            <path d="M345.19,888.02c.02.97.63,1.36,1.35,1.36.51,0,.82-.09,1.09-.2l.12.51c-.25.11-.68.24-1.31.24-1.21,0-1.93-.8-1.93-1.98s.7-2.12,1.84-2.12c1.28,0,1.62,1.13,1.62,1.85,0,.15-.02.26-.02.33h-2.76ZM347.28,887.51c0-.45-.19-1.16-.99-1.16-.72,0-1.04.67-1.1,1.16h2.09Z" class="uuid-285062fd-3764-4b00-b16a-759037e655fa"/>
            <path d="M348.86,886.99c0-.41,0-.74-.03-1.06h.63l.03.63h.02c.22-.37.58-.72,1.23-.72.54,0,.94.32,1.11.79h.02c.12-.22.28-.39.44-.51.24-.18.5-.28.87-.28.52,0,1.29.34,1.29,1.7v2.31h-.7v-2.22c0-.75-.28-1.21-.85-1.21-.41,0-.72.3-.84.65-.03.1-.06.23-.06.36v2.43h-.7v-2.35c0-.62-.28-1.08-.82-1.08-.45,0-.77.36-.89.71-.04.11-.06.23-.06.35v2.37h-.7v-2.87Z" class="uuid-285062fd-3764-4b00-b16a-759037e655fa"/>
            <path d="M357.8,889.85l-.06-.5h-.02c-.22.31-.64.58-1.2.58-.8,0-1.2-.56-1.2-1.13,0-.95.84-1.47,2.36-1.46v-.08c0-.32-.09-.91-.89-.91-.37,0-.75.11-1.02.29l-.16-.47c.32-.21.8-.35,1.29-.35,1.2,0,1.49.82,1.49,1.61v1.47c0,.34.02.67.07.94h-.65ZM357.7,887.85c-.78-.02-1.66.12-1.66.88,0,.46.31.68.67.68.51,0,.84-.32.95-.66.02-.07.04-.15.04-.23v-.68Z" class="uuid-285062fd-3764-4b00-b16a-759037e655fa"/>
            <path d="M360.33,884.82c0,.24-.17.44-.45.44-.25,0-.43-.19-.43-.44s.19-.45.45-.45.44.19.44.45ZM359.54,889.85v-3.93h.71v3.93h-.71Z" class="uuid-285062fd-3764-4b00-b16a-759037e655fa"/>
            <path d="M361.44,884.09h.71v5.76h-.71v-5.76Z" class="uuid-285062fd-3764-4b00-b16a-759037e655fa"/>
          </g>
          <g>
            <path d="M328.01,902.89l.86,2.32c.09.26.19.57.25.8h.02c.07-.24.15-.54.25-.82l.78-2.31h.75l-1.07,2.8c-.51,1.35-.86,2.04-1.35,2.46-.35.31-.7.43-.88.46l-.18-.6c.18-.06.41-.17.62-.35.19-.15.44-.43.6-.8.03-.07.06-.13.06-.17s-.02-.1-.05-.19l-1.45-3.62h.78Z" class="uuid-285062fd-3764-4b00-b16a-759037e655fa"/>
            <path d="M335.05,904.83c0,1.45-1.01,2.09-1.96,2.09-1.06,0-1.88-.78-1.88-2.02,0-1.32.86-2.09,1.95-2.09s1.89.82,1.89,2.02ZM331.93,904.87c0,.86.5,1.51,1.19,1.51s1.19-.64,1.19-1.53c0-.67-.33-1.51-1.18-1.51s-1.21.78-1.21,1.53Z" class="uuid-285062fd-3764-4b00-b16a-759037e655fa"/>
            <path d="M339.23,905.75c0,.41,0,.76.03,1.07h-.63l-.04-.64h-.02c-.19.32-.6.73-1.3.73-.62,0-1.36-.34-1.36-1.72v-2.3h.71v2.18c0,.75.23,1.25.88,1.25.48,0,.81-.33.94-.65.04-.11.07-.24.07-.37v-2.41h.71v2.86Z" class="uuid-285062fd-3764-4b00-b16a-759037e655fa"/>
            <path d="M340.42,904.12c0-.46,0-.86-.03-1.23h.63l.02.77h.03c.18-.53.61-.86,1.09-.86.08,0,.14,0,.2.02v.67c-.07-.02-.15-.02-.24-.02-.5,0-.86.38-.96.92-.02.1-.03.21-.03.33v2.09h-.71v-2.7Z" class="uuid-285062fd-3764-4b00-b16a-759037e655fa"/>
            <path d="M346.97,906.82l-.06-.5h-.02c-.22.31-.64.58-1.2.58-.8,0-1.2-.56-1.2-1.13,0-.95.84-1.47,2.36-1.46v-.08c0-.32-.09-.91-.89-.91-.37,0-.75.11-1.02.29l-.16-.47c.32-.21.8-.35,1.29-.35,1.2,0,1.49.82,1.49,1.61v1.47c0,.34.02.67.06.94h-.65ZM346.86,904.82c-.78-.02-1.66.12-1.66.88,0,.46.31.68.67.68.51,0,.84-.32.95-.66.02-.07.04-.15.04-.23v-.68Z" class="uuid-285062fd-3764-4b00-b16a-759037e655fa"/>
            <path d="M352.1,901.06v4.75c0,.35,0,.75.03,1.01h-.64l-.03-.68h-.02c-.22.44-.7.77-1.34.77-.95,0-1.68-.8-1.68-2,0-1.31.8-2.11,1.76-2.11.6,0,1.01.28,1.19.6h.02v-2.35h.71ZM351.38,904.49c0-.09,0-.21-.03-.3-.11-.45-.5-.83-1.03-.83-.74,0-1.18.65-1.18,1.52,0,.8.39,1.45,1.16,1.45.48,0,.92-.32,1.05-.85.02-.1.03-.19.03-.31v-.68Z" class="uuid-285062fd-3764-4b00-b16a-759037e655fa"/>
            <path d="M356.67,901.06v4.75c0,.35,0,.75.03,1.01h-.64l-.03-.68h-.02c-.22.44-.7.77-1.34.77-.95,0-1.68-.8-1.68-2,0-1.31.8-2.11,1.76-2.11.6,0,1.01.28,1.18.6h.02v-2.35h.71ZM355.96,904.49c0-.09,0-.21-.03-.3-.11-.45-.5-.83-1.03-.83-.74,0-1.18.65-1.18,1.52,0,.8.39,1.45,1.16,1.45.48,0,.92-.32,1.05-.85.02-.1.03-.19.03-.31v-.68Z" class="uuid-285062fd-3764-4b00-b16a-759037e655fa"/>
            <path d="M357.86,904.12c0-.46,0-.86-.03-1.23h.62l.02.77h.03c.18-.53.61-.86,1.09-.86.08,0,.14,0,.2.02v.67c-.07-.02-.15-.02-.24-.02-.5,0-.86.38-.96.92-.02.1-.03.21-.03.33v2.09h-.71v-2.7Z" class="uuid-285062fd-3764-4b00-b16a-759037e655fa"/>
            <path d="M360.83,904.99c.02.97.63,1.36,1.35,1.36.51,0,.82-.09,1.09-.2l.12.51c-.25.11-.68.24-1.31.24-1.21,0-1.93-.8-1.93-1.98s.7-2.12,1.84-2.12c1.28,0,1.62,1.13,1.62,1.85,0,.15-.02.26-.02.33h-2.76ZM362.92,904.48c0-.45-.19-1.16-.99-1.16-.72,0-1.04.67-1.1,1.16h2.09Z" class="uuid-285062fd-3764-4b00-b16a-759037e655fa"/>
            <path d="M364.4,906.09c.21.14.58.28.94.28.52,0,.76-.26.76-.58,0-.34-.2-.53-.73-.72-.71-.25-1.04-.64-1.04-1.11,0-.63.51-1.15,1.36-1.15.4,0,.75.11.97.24l-.18.52c-.15-.1-.44-.23-.8-.23-.42,0-.66.24-.66.54,0,.32.24.47.75.67.68.26,1.03.6,1.03,1.19,0,.69-.54,1.18-1.47,1.18-.43,0-.83-.11-1.1-.27l.18-.54Z" class="uuid-285062fd-3764-4b00-b16a-759037e655fa"/>
            <path d="M367.61,906.09c.21.14.58.28.94.28.52,0,.76-.26.76-.58,0-.34-.2-.53-.73-.72-.71-.25-1.04-.64-1.04-1.11,0-.63.51-1.15,1.36-1.15.4,0,.75.11.97.24l-.18.52c-.15-.1-.44-.23-.8-.23-.42,0-.66.24-.66.54,0,.32.24.47.75.67.68.26,1.03.6,1.03,1.19,0,.69-.54,1.18-1.47,1.18-.43,0-.83-.11-1.1-.27l.18-.54Z" class="uuid-285062fd-3764-4b00-b16a-759037e655fa"/>
          </g>
        </g>
        <g>
          <g>
            <path d="M322.25,797.32h1.48v5.27c0,2.24-1.09,2.99-2.7,2.99-.41,0-.93-.07-1.24-.19l.18-1.19c.24.07.57.14.92.14.84,0,1.36-.39,1.36-1.8v-5.23Z" class="uuid-285062fd-3764-4b00-b16a-759037e655fa"/>
            <path d="M330.89,802.46c0,2.16-1.52,3.13-3.02,3.13-1.67,0-2.94-1.15-2.94-3.03s1.27-3.11,3.04-3.11,2.92,1.23,2.92,3.02ZM326.47,802.52c0,1.13.56,1.99,1.46,1.99.84,0,1.44-.83,1.44-2.02,0-.92-.41-1.97-1.42-1.97s-1.47,1.01-1.47,1.99Z" class="uuid-285062fd-3764-4b00-b16a-759037e655fa"/>
            <path d="M332.12,796.88h1.5v3.5h.02c.18-.28.42-.51.74-.68.29-.17.64-.27,1.01-.27,1,0,2.05.66,2.05,2.55v3.46h-1.48v-3.29c0-.86-.31-1.5-1.13-1.5-.58,0-.99.39-1.15.83-.05.12-.06.28-.06.45v3.51h-1.5v-8.57Z" class="uuid-285062fd-3764-4b00-b16a-759037e655fa"/>
            <path d="M339.02,801.32c0-.68-.01-1.24-.05-1.75h1.3l.07.88h.04c.25-.46.89-1.01,1.87-1.01,1.03,0,2.09.66,2.09,2.52v3.49h-1.48v-3.32c0-.84-.31-1.48-1.12-1.48-.59,0-1,.42-1.16.87-.05.13-.06.31-.06.48v3.45h-1.5v-4.13Z" class="uuid-285062fd-3764-4b00-b16a-759037e655fa"/>
            <path d="M348.45,803.83c.48.28,1.21.52,1.97.52.95,0,1.48-.45,1.48-1.11,0-.62-.41-.98-1.45-1.35-1.34-.48-2.2-1.19-2.2-2.37,0-1.33,1.11-2.34,2.87-2.34.88,0,1.53.19,1.95.41l-.36,1.19c-.29-.16-.86-.39-1.62-.39-.94,0-1.35.51-1.35.98,0,.63.47.92,1.56,1.34,1.41.53,2.1,1.24,2.1,2.41,0,1.3-.99,2.44-3.09,2.44-.86,0-1.75-.24-2.2-.51l.33-1.23Z" class="uuid-285062fd-3764-4b00-b16a-759037e655fa"/>
            <path d="M354.7,801.32c0-.68-.01-1.24-.05-1.75h1.28l.06.87h.04c.29-.46.82-1,1.81-1,.77,0,1.38.43,1.63,1.09h.02c.21-.33.45-.57.72-.74.33-.23.7-.35,1.18-.35.98,0,1.97.66,1.97,2.55v3.46h-1.45v-3.25c0-.98-.34-1.56-1.05-1.56-.51,0-.88.36-1.04.78-.04.14-.07.33-.07.49v3.52h-1.45v-3.4c0-.82-.33-1.4-1.01-1.4-.56,0-.93.43-1.06.84-.06.14-.08.31-.08.48v3.48h-1.45v-4.13Z" class="uuid-285062fd-3764-4b00-b16a-759037e655fa"/>
            <path d="M366.52,797.93c0,.45-.33.8-.84.8s-.82-.35-.82-.8.34-.81.83-.81.82.35.83.81ZM364.93,805.45v-5.88h1.5v5.88h-1.5Z" class="uuid-285062fd-3764-4b00-b16a-759037e655fa"/>
            <path d="M369.73,797.9v1.68h1.41v1.11h-1.41v2.59c0,.71.19,1.09.76,1.09.25,0,.45-.04.58-.07l.02,1.13c-.22.08-.6.14-1.07.14-.54,0-1-.18-1.28-.48-.31-.34-.46-.87-.46-1.64v-2.76h-.84v-1.11h.84v-1.33l1.45-.35Z" class="uuid-285062fd-3764-4b00-b16a-759037e655fa"/>
            <path d="M372.26,796.88h1.5v3.5h.02c.18-.28.42-.51.74-.68.29-.17.64-.27,1.01-.27,1,0,2.05.66,2.05,2.55v3.46h-1.48v-3.29c0-.86-.31-1.5-1.13-1.5-.58,0-.99.39-1.15.83-.05.12-.06.28-.06.45v3.51h-1.5v-8.57Z" class="uuid-285062fd-3764-4b00-b16a-759037e655fa"/>
            <path d="M378.47,806.91c.33-.92.65-2.18.81-3.19l1.56-.12c-.34,1.13-.88,2.44-1.35,3.21l-1.01.1Z" class="uuid-285062fd-3764-4b00-b16a-759037e655fa"/>
            <path d="M384.58,797.43c.47-.1,1.33-.17,2.16-.17,1.1,0,1.77.13,2.33.52.51.3.84.83.84,1.52,0,.75-.47,1.44-1.35,1.76v.02c.86.22,1.64.89,1.64,2.02,0,.72-.31,1.29-.78,1.68-.58.51-1.53.76-3.02.76-.82,0-1.45-.06-1.82-.11v-8ZM386.05,800.64h.76c1.03,0,1.6-.48,1.6-1.17,0-.76-.58-1.11-1.52-1.11-.43,0-.69.02-.84.06v2.22ZM386.05,804.38c.19.02.45.04.78.04.95,0,1.8-.36,1.8-1.36,0-.94-.82-1.33-1.85-1.33h-.74v2.65Z" class="uuid-285062fd-3764-4b00-b16a-759037e655fa"/>
            <path d="M393.13,803.15l-.7,2.3h-1.53l2.61-8.13h1.89l2.64,8.13h-1.59l-.74-2.3h-2.58ZM395.46,802.02l-.64-2c-.16-.49-.29-1.05-.41-1.52h-.02c-.12.47-.24,1.04-.39,1.52l-.63,2h2.09Z" class="uuid-285062fd-3764-4b00-b16a-759037e655fa"/>
          </g>
          <g>
            <path d="M351.97,820.52c-.27.14-.86.28-1.61.28-1.98,0-3.19-1.24-3.19-3.14,0-2.06,1.43-3.3,3.33-3.3.75,0,1.29.16,1.52.28l-.25.91c-.3-.13-.7-.24-1.22-.24-1.27,0-2.19.8-2.19,2.3,0,1.37.81,2.25,2.18,2.25.46,0,.94-.09,1.24-.23l.19.9Z" class="uuid-285062fd-3764-4b00-b16a-759037e655fa"/>
            <path d="M358.28,817.94h-2.35v1.83h2.63v.94h-3.77v-6.24h3.63v.94h-2.49v1.61h2.35v.93Z" class="uuid-285062fd-3764-4b00-b16a-759037e655fa"/>
            <path d="M366.94,817.52c0,2.09-1.27,3.29-2.99,3.29s-2.87-1.34-2.87-3.18,1.2-3.27,2.96-3.27,2.9,1.38,2.9,3.16ZM362.28,817.62c0,1.27.64,2.28,1.73,2.28s1.72-1.02,1.72-2.33c0-1.18-.58-2.29-1.72-2.29s-1.73,1.05-1.73,2.33Z" class="uuid-285062fd-3764-4b00-b16a-759037e655fa"/>
          </g>
        </g>
        <g>
          <path d="M174.37,869.04h1.19v5.97h3.6v1.12h-4.79v-7.09Z" class="uuid-94a2c89b-a8a3-45a8-93cc-8085c9610ac0"/>
          <path d="M186.62,873.99c-.18.45-.42.84-.74,1.17-.32.33-.7.6-1.13.8-.44.2-.92.29-1.45.29s-1.01-.1-1.45-.29c-.44-.19-.81-.45-1.12-.79-.31-.33-.56-.72-.73-1.17-.18-.45-.26-.92-.26-1.42s.09-.97.26-1.42c.18-.45.42-.84.74-1.17.32-.33.7-.6,1.13-.8.44-.2.92-.29,1.45-.29s1.01.1,1.45.29c.44.19.81.45,1.12.79.31.33.56.72.73,1.17.18.45.26.92.26,1.42s-.09.97-.26,1.42ZM185.45,871.62c-.11-.31-.27-.58-.48-.81-.21-.23-.45-.41-.74-.55-.29-.14-.6-.2-.94-.2s-.65.07-.93.2c-.28.13-.53.31-.73.54-.2.23-.36.49-.47.8-.11.31-.17.63-.17.98s.06.67.17.98c.11.31.27.58.48.81.21.23.45.41.74.55.29.14.6.2.94.2s.65-.07.93-.2c.28-.13.53-.31.73-.54.2-.23.36-.49.47-.8.11-.31.17-.63.17-.98s-.06-.67-.17-.98Z" class="uuid-94a2c89b-a8a3-45a8-93cc-8085c9610ac0"/>
          <path d="M192.73,876.13l-1.69-2.47h-1.51v2.47h-1.19v-7.09h3.05c.39,0,.74.05,1.06.16.32.1.58.25.8.45.22.19.39.43.5.71.12.28.18.59.18.94,0,.3-.04.56-.12.8-.08.23-.19.44-.34.62-.14.18-.31.33-.51.46-.2.13-.42.22-.66.29l1.85,2.69h-1.42ZM192.34,870.46c-.25-.2-.6-.3-1.05-.3h-1.76v2.39h1.77c.43,0,.77-.11,1.03-.33.25-.22.38-.51.38-.88,0-.39-.12-.69-.37-.89Z" class="uuid-94a2c89b-a8a3-45a8-93cc-8085c9610ac0"/>
          <path d="M200.47,870.16h-3.87v1.82h3.43v1.12h-3.43v1.89h3.92v1.12h-5.11v-7.09h5.06v1.12Z" class="uuid-94a2c89b-a8a3-45a8-93cc-8085c9610ac0"/>
          <path d="M205.33,874.39h-.04l-2.14-3.32v5.07h-1.19v-7.09h1.28l2.08,3.35,2.08-3.35h1.28v7.09h-1.19v-5.09l-2.16,3.34Z" class="uuid-94a2c89b-a8a3-45a8-93cc-8085c9610ac0"/>
          <path d="M214.64,869.04v7.09h-1.19v-7.09h1.19Z" class="uuid-94a2c89b-a8a3-45a8-93cc-8085c9610ac0"/>
          <path d="M221.56,872.47c-.14.3-.34.56-.59.76-.25.2-.54.36-.87.46-.33.1-.69.16-1.07.16h-1.36v2.28h-1.19v-7.09h2.7c.4,0,.76.06,1.08.17.32.11.6.27.82.48.22.21.4.46.52.75.12.29.18.62.18.98,0,.4-.07.75-.22,1.05ZM220.15,870.48c-.27-.21-.63-.32-1.08-.32h-1.4v2.56h1.4c.46,0,.82-.12,1.08-.35.26-.23.4-.54.4-.93,0-.43-.13-.75-.4-.96Z" class="uuid-94a2c89b-a8a3-45a8-93cc-8085c9610ac0"/>
          <path d="M224.08,871.26c.05.1.13.2.25.28.12.09.29.17.5.24s.48.15.81.23c.36.09.68.2.96.31.28.11.51.26.69.42.18.17.32.36.42.58.09.22.14.48.14.78,0,.34-.06.64-.18.9s-.29.49-.5.67-.47.32-.77.42c-.3.09-.63.14-.99.14-.53,0-1.03-.09-1.52-.28-.48-.19-.93-.47-1.34-.86l.72-.89c.33.3.67.53,1.01.68.34.16.72.24,1.15.24.37,0,.67-.08.88-.24.22-.16.33-.38.33-.66,0-.13-.02-.24-.06-.34-.04-.1-.12-.19-.24-.28-.11-.08-.27-.16-.47-.24-.2-.07-.46-.15-.78-.23-.37-.09-.69-.19-.98-.29-.28-.11-.52-.24-.72-.41-.19-.16-.34-.36-.44-.59-.1-.23-.15-.51-.15-.84,0-.31.06-.59.17-.85s.28-.47.48-.65.45-.32.73-.42c.29-.1.6-.15.94-.15.5,0,.95.08,1.35.23.4.15.78.37,1.13.66l-.65.94c-.31-.24-.62-.42-.93-.54-.31-.12-.62-.19-.93-.19-.35,0-.63.08-.82.25-.2.17-.29.37-.29.6,0,.14.02.26.07.36Z" class="uuid-94a2c89b-a8a3-45a8-93cc-8085c9610ac0"/>
          <path d="M235.01,873.06c0,.53-.07.99-.21,1.39-.14.4-.34.73-.59,1s-.56.47-.92.6c-.36.13-.77.2-1.22.2s-.84-.07-1.2-.2c-.36-.13-.66-.33-.92-.59-.25-.26-.45-.59-.59-.98-.14-.39-.21-.84-.21-1.35v-4.08h1.19v4.03c0,.66.15,1.17.46,1.51.31.34.73.52,1.28.52s.96-.17,1.27-.5c.31-.33.46-.82.46-1.48v-4.08h1.19v4.02Z" class="uuid-94a2c89b-a8a3-45a8-93cc-8085c9610ac0"/>
          <path d="M240.03,874.39h-.04l-2.14-3.32v5.07h-1.19v-7.09h1.28l2.08,3.35,2.08-3.35h1.28v7.09h-1.19v-5.09l-2.16,3.34Z" class="uuid-94a2c89b-a8a3-45a8-93cc-8085c9610ac0"/>
        </g>
      </g>
    </g>
    <g data-name="logo here !!" id="uuid-9cbba189-4259-4c38-8b62-3cc451987520">
      <g>
        <rect height="51.75" width="43.03" y="200.18" x="400.18" class="uuid-94a2c89b-a8a3-45a8-93cc-8085c9610ac0"/>
        <path d="M590.92,327.21c-4.48-7.47-10.21-13.57-16.93-18.09,4.65-3.62,8.53-7.83,11.59-12.59,5.14-8.02,7.76-17.22,7.76-27.33,0-43.21-30.85-69.02-82.53-69.02h-49.27v51.75h21.38v.15h31.6c20.48,0,22.17,9.23,22.17,15.46,0,3.64,3.71,17.26-22.17,17.26h-10.82v50.7h15.68c13.52,0,23.8,6.18,23.8,19.21,0,16.91-20.49,19.22-23.8,19.22h-76.17v-103.78h-43.03v156.59h110.63c26.13,0,46.92-4.96,61.78-14.75,18.07-11.89,27.23-30.46,27.23-55.16,0-9.24-3.33-20.31-8.91-29.62Z" class="uuid-94a2c89b-a8a3-45a8-93cc-8085c9610ac0"/>
      </g>
      <g>
        <rect height="12.18" width="10.12" y="799.04" x="697.14" class="uuid-285062fd-3764-4b00-b16a-759037e655fa"/>
        <path d="M742.02,828.93c-1.05-1.76-2.4-3.19-3.98-4.26,1.09-.85,2.01-1.84,2.73-2.96,1.21-1.89,1.83-4.05,1.83-6.43,0-10.17-7.26-16.24-19.42-16.24h-11.59v12.18h5.03v.04h7.43c4.82,0,5.22,2.17,5.22,3.64,0,.86.87,4.06-5.22,4.06h-2.55v11.93h3.69c3.18,0,5.6,1.45,5.6,4.52,0,3.98-4.82,4.52-5.6,4.52h-17.92v-24.42h-10.12v36.84h26.03c6.15,0,11.04-1.17,14.54-3.47,4.25-2.8,6.41-7.17,6.41-12.98,0-2.17-.78-4.78-2.1-6.97Z" class="uuid-285062fd-3764-4b00-b16a-759037e655fa"/>
      </g>
      <g>
        <rect height="9.39" width="7.81" y="817.59" x="192.99" class="uuid-94a2c89b-a8a3-45a8-93cc-8085c9610ac0"/>
        <path d="M227.61,840.65c-.81-1.36-1.85-2.46-3.07-3.28.84-.66,1.55-1.42,2.1-2.29.93-1.46,1.41-3.13,1.41-4.96,0-7.84-5.6-12.53-14.98-12.53h-8.94v9.39h3.88v.03h5.74c3.72,0,4.03,1.67,4.03,2.81,0,.66.67,3.13-4.03,3.13h-1.96v9.2h2.85c2.45,0,4.32,1.12,4.32,3.49,0,3.07-3.72,3.49-4.32,3.49h-13.83v-18.84h-7.81v28.42h20.08c4.74,0,8.52-.9,11.21-2.68,3.28-2.16,4.94-5.53,4.94-10.01,0-1.68-.6-3.69-1.62-5.38Z" class="uuid-94a2c89b-a8a3-45a8-93cc-8085c9610ac0"/>
      </g>
    </g>
    <g data-name="eps" id="uuid-dcafd6c7-e06f-44d5-ac1d-6dacd1a63a3f">
      <g>
        <path d="M964.22,132.77h-63.93c-5.58,0-10.11-4.53-10.11-10.11V35.38c0-5.58,4.53-10.11,10.11-10.11h45.28c2.39,0,4.67,1,6.29,2.76l20.21,21.93c1.45,1.58,2.26,3.65,2.26,5.79v66.91c0,5.58-4.53,10.11-10.11,10.11Z" class="uuid-285062fd-3764-4b00-b16a-759037e655fa"/>
        <path d="M964.22,135.1h-63.93c-6.86,0-12.44-5.58-12.44-12.44V35.38c0-6.86,5.58-12.44,12.44-12.44h45.28c3.03,0,5.95,1.28,8,3.51l20.21,21.93c1.86,2.01,2.88,4.63,2.88,7.37v66.91c0,6.86-5.58,12.44-12.44,12.44ZM900.29,27.6c-4.29,0-7.78,3.49-7.78,7.78v87.28c0,4.29,3.49,7.78,7.78,7.78h63.93c4.29,0,7.78-3.49,7.78-7.78V55.75c0-1.57-.58-3.06-1.65-4.22l-20.21-21.93c-1.17-1.27-2.84-2.01-4.57-2.01h-45.28Z" class="uuid-dc832e68-3bcc-47fe-bbb8-48b53c0edc26"/>
        <path d="M954.75,71.46c-1.21-2.42-2.79-4.61-4.72-6.54-1.69-1.69-3.59-3.12-5.67-4.26h14.71c.86,0,1.55-.69,1.55-1.55s-.69-1.55-1.55-1.55h-19.47c-.72-3.4-3.74-5.96-7.35-5.96s-6.63,2.56-7.35,5.96h-19.47c-.86,0-1.55.69-1.55,1.55s.69,1.55,1.55,1.55h14.71c-2.07,1.14-3.97,2.57-5.67,4.26-1.93,1.93-3.51,4.13-4.72,6.54-4.1.05-7.43,3.4-7.43,7.51s3.37,7.51,7.51,7.51,7.51-3.37,7.51-7.51c0-3.05-1.82-5.67-4.43-6.85,2.65-4.82,7.04-8.54,12.32-10.32,1.09,2.81,3.82,4.82,7.01,4.82s5.93-2,7.01-4.82c5.28,1.78,9.68,5.5,12.32,10.32-2.61,1.18-4.43,3.81-4.43,6.85,0,4.14,3.37,7.51,7.51,7.51s7.51-3.37,7.51-7.51-3.32-7.47-7.43-7.51ZM914.24,78.98c0,2.43-1.98,4.41-4.41,4.41s-4.41-1.98-4.41-4.41,1.98-4.41,4.41-4.41,4.41,1.98,4.41,4.41ZM932.25,63.51c-2.43,0-4.41-1.98-4.41-4.41s1.98-4.41,4.41-4.41,4.41,1.98,4.41,4.41-1.98,4.41-4.41,4.41ZM954.67,83.39c-2.43,0-4.41-1.98-4.41-4.41s1.98-4.41,4.41-4.41,4.41,1.98,4.41,4.41-1.98,4.41-4.41,4.41Z" class="uuid-bfa26d4e-5bb1-4665-992d-8f8996809bac"/>
        <g>
          <path d="M916.81,110h-7.02v3.93h6.28v1.18h-6.28v4.03h7.1v1.18h-8.4v-11.51h8.32v1.18Z" class="uuid-bfa26d4e-5bb1-4665-992d-8f8996809bac"/>
          <path d="M927.76,114.13c-.24.47-.57.87-.98,1.18-.41.32-.89.56-1.44.72-.55.16-1.13.24-1.74.24h-2.8v4.06h-1.3v-11.51h4.31c.65,0,1.24.09,1.77.25.53.17.99.41,1.36.72.38.31.67.7.87,1.15.2.46.3.97.3,1.54,0,.62-.12,1.17-.36,1.64ZM925.98,110.65c-.57-.42-1.32-.63-2.25-.63h-2.92v5.06h2.85c.47,0,.9-.06,1.29-.18.39-.12.73-.29,1.01-.52.28-.22.49-.49.64-.81.15-.31.22-.66.22-1.04,0-.83-.28-1.46-.85-1.88Z" class="uuid-bfa26d4e-5bb1-4665-992d-8f8996809bac"/>
          <path d="M931.63,112.42c.09.22.25.42.48.6.23.18.55.35.95.49.41.15.93.29,1.56.42,1.28.29,2.23.68,2.84,1.19.61.51.91,1.2.91,2.09,0,.49-.1.94-.29,1.35-.19.41-.46.75-.81,1.04-.34.29-.75.51-1.24.66-.48.15-1.01.23-1.58.23-.92,0-1.76-.15-2.52-.45-.76-.3-1.49-.76-2.18-1.38l.81-.95c.6.55,1.21.96,1.83,1.23.61.27,1.32.4,2.12.4s1.4-.18,1.87-.54c.47-.36.7-.84.7-1.43,0-.27-.04-.52-.13-.73-.09-.21-.24-.41-.46-.58-.22-.18-.52-.33-.91-.48-.39-.14-.89-.28-1.49-.41-.66-.14-1.23-.31-1.72-.49-.49-.19-.89-.41-1.21-.68-.32-.26-.56-.57-.71-.92-.15-.35-.23-.77-.23-1.25s.09-.88.28-1.27c.19-.38.45-.72.79-1,.34-.28.74-.5,1.2-.66.46-.16.96-.24,1.51-.24.84,0,1.58.12,2.21.35.63.23,1.24.58,1.83,1.05l-.76,1c-.54-.44-1.08-.76-1.62-.95-.54-.2-1.11-.3-1.7-.3-.37,0-.71.05-1.01.15-.3.1-.56.23-.77.4s-.38.36-.49.59c-.12.23-.17.48-.17.74s.04.52.13.74Z" class="uuid-bfa26d4e-5bb1-4665-992d-8f8996809bac"/>
          <path d="M942.67,108.73h.97v11.59h-1.3v-10.24l-2.17.67-.31-1.05,2.82-.97Z" class="uuid-bfa26d4e-5bb1-4665-992d-8f8996809bac"/>
          <path d="M955.67,116.86c-.23.72-.56,1.36-.98,1.9-.42.54-.93.97-1.54,1.29-.6.32-1.27.48-2.01.48s-1.42-.16-2.01-.47c-.6-.31-1.11-.74-1.53-1.28-.42-.54-.75-1.17-.97-1.89-.22-.72-.34-1.48-.34-2.29s.12-1.58.35-2.3c.23-.72.56-1.36.98-1.9.42-.54.93-.97,1.54-1.29.6-.32,1.28-.48,2.02-.48s1.4.16,2,.47c.6.31,1.11.74,1.53,1.28.42.54.75,1.17.97,1.89.22.72.34,1.48.34,2.29s-.12,1.58-.35,2.3ZM954.42,112.77c-.16-.58-.4-1.08-.71-1.52-.31-.44-.68-.79-1.11-1.05-.43-.26-.92-.39-1.46-.39s-1.02.13-1.46.39c-.43.26-.8.6-1.1,1.04-.3.43-.53.94-.7,1.51-.16.58-.25,1.18-.25,1.82s.08,1.24.25,1.83c.16.58.4,1.09.71,1.53.31.44.68.79,1.12,1.04.44.26.93.39,1.46.39s1.02-.13,1.46-.39c.43-.26.8-.6,1.1-1.04.3-.43.53-.94.69-1.51.16-.58.24-1.18.24-1.82s-.08-1.24-.25-1.82Z" class="uuid-bfa26d4e-5bb1-4665-992d-8f8996809bac"/>
        </g>
      </g>
    </g>
  </g>
</svg>
