<svg version="1.1" id="Layer_1" xmlns="http://www.w3.org/2000/svg" xmlns:xlink="http://www.w3.org/1999/xlink" x="0px" y="0px"
	 width="100%" viewBox="0 0 615 312" enable-background="new 0 0 615 312" xml:space="preserve">
<path fill="#09090B" opacity="1.000000" stroke="none" 
	d="
M412.000000,313.000000 
	C274.666656,313.000000 137.833328,313.000000 1.000000,313.000000 
	C1.000000,209.000000 1.000000,105.000000 1.000000,1.000000 
	C206.000000,1.000000 411.000000,1.000000 616.000000,1.000000 
	C616.000000,105.000000 616.000000,209.000000 616.000000,313.000000 
	C548.166687,313.000000 480.333344,313.000000 412.000000,313.000000 
M299.757202,175.060791 
	C309.537476,172.034134 314.365631,164.836349 317.090179,155.240997 
	C310.058899,155.021103 303.173126,153.179886 299.924530,161.453506 
	C299.505768,162.519989 297.979584,163.151657 296.150818,164.040436 
	C292.103790,164.025162 288.056763,164.009888 283.556305,163.494659 
	C279.369904,160.978516 275.947693,157.949951 275.841217,152.334549 
	C278.103546,152.180405 280.051910,152.047668 282.922821,152.079712 
	C288.281372,152.023682 293.639954,151.967636 299.921478,152.079987 
	C305.538940,152.079987 311.156403,152.079987 316.687103,152.079987 
	C319.893066,137.617096 314.016876,125.065186 301.380707,119.632858 
	C295.585663,119.191841 289.790588,118.750816 283.268463,118.290710 
	C269.272552,122.850960 262.463379,132.110596 262.340515,146.750076 
	C262.222290,160.836060 270.196777,172.300644 282.615509,175.465897 
	C288.080750,175.321945 293.545990,175.177994 299.757202,175.060791 
M233.385300,117.709152 
	C232.230835,117.793533 231.066406,117.808739 229.923492,117.973297 
	C221.208282,119.228088 214.628433,125.152893 213.802811,132.451584 
	C212.831970,141.033813 216.776123,146.730530 226.260239,150.207916 
	C228.728577,151.112961 231.320908,151.679825 234.436981,152.802948 
	C238.078293,154.728455 244.732407,153.605682 244.285492,159.749832 
	C243.877457,165.359360 238.268204,164.818665 233.312683,164.894989 
	C228.326035,164.153000 226.048874,160.742081 225.126266,156.354355 
	C220.779266,156.354355 216.731934,156.354355 212.669312,156.354355 
	C213.555069,168.952728 221.206223,175.900284 234.894089,176.350082 
	C240.691330,176.617950 246.133942,175.541077 250.820129,171.905121 
	C260.276001,164.568375 259.118469,150.410721 248.464828,145.635971 
	C243.871887,143.577484 238.840637,142.496964 233.471939,140.506973 
	C232.402069,140.068222 231.054092,139.896973 230.320694,139.134567 
	C228.830902,137.585815 226.537582,135.607635 226.692108,134.011337 
	C226.852707,132.352142 229.416443,130.813278 231.125015,129.470856 
	C231.818344,128.926117 233.028763,129.039490 234.779999,128.991409 
	C240.652252,129.139908 243.707016,132.444885 244.367249,137.844559 
	C248.751617,137.844559 252.692200,137.844559 256.630737,137.844559 
	C256.472229,126.619606 250.487350,117.513840 233.385300,117.709152 
M168.823654,160.161026 
	C167.954834,156.160995 166.490952,152.183884 166.335983,148.156372 
	C165.967148,138.570648 166.217178,128.961136 166.217178,119.286293 
	C161.758255,119.286293 157.879517,119.286293 153.967834,119.286293 
	C153.967834,131.786087 153.506210,143.947586 154.128448,156.053375 
	C154.550552,164.265259 158.506775,170.960526 167.355438,174.621216 
	C173.977173,176.845642 180.559464,177.566376 187.726028,173.847656 
	C188.958542,173.220596 190.191055,172.593552 191.514648,171.920151 
	C191.919769,173.554688 192.214615,174.744293 192.443268,175.666840 
	C196.731949,175.666840 200.646606,175.666840 204.542480,175.666840 
	C204.542480,156.626160 204.542480,137.928818 204.542480,119.192856 
	C200.279282,119.192856 196.362473,119.192856 192.009476,119.192856 
	C192.009476,129.569824 192.014679,139.676483 192.007355,149.783142 
	C192.003464,155.163269 190.507309,159.888901 185.285919,163.473648 
	C179.339798,165.936081 173.921066,165.104126 168.823654,160.161026 
M404.354645,174.612869 
	C410.874329,176.791092 417.416718,177.246597 424.721466,174.879593 
	C437.314423,169.738358 444.034973,159.753296 443.862152,146.441299 
	C443.691162,133.274811 437.282928,124.005325 424.298584,118.801826 
	C418.177338,116.969337 412.075104,116.586502 405.277252,119.025200 
	C383.346039,126.305397 382.095154,155.718979 394.507660,167.990479 
	C397.093231,170.546677 400.686523,172.083557 404.354645,174.612869 
M364.296204,118.856514 
	C357.364227,116.581711 350.581848,116.730179 343.264252,120.197899 
	C341.506989,121.198349 339.749695,122.198799 337.535187,123.459564 
	C337.535187,115.282425 337.535187,107.886971 337.535187,100.485931 
	C333.270874,100.485931 329.366821,100.485931 325.301147,100.485931 
	C325.301147,125.715378 325.301147,150.608017 325.301147,175.679367 
	C329.591980,175.679367 333.641815,175.679367 337.661194,175.679367 
	C337.761719,173.923492 337.843201,172.500839 337.945160,170.720108 
	C339.477478,171.459930 340.647583,172.024887 342.322388,173.022675 
	C348.931213,176.652206 355.814514,177.564377 363.782898,175.101624 
	C375.548950,170.872879 382.211182,160.938126 382.466980,147.239639 
	C382.717834,133.805923 376.351654,123.587723 364.296204,118.856514 
M469.375153,159.582932 
	C472.384338,164.367264 475.335968,169.189667 478.452423,173.903076 
	C479.059113,174.820618 480.257751,175.807480 481.268646,175.908463 
	C484.027374,176.184036 486.831726,176.003250 491.091461,176.003250 
	C489.745911,171.861008 489.134247,168.333633 487.515137,165.353561 
	C484.599548,159.987122 480.918243,155.039536 477.927521,149.708984 
	C477.181976,148.380112 477.221222,145.898605 477.981750,144.563080 
	C480.939819,139.368591 484.586029,134.561127 487.465973,129.328842 
	C489.081726,126.393295 489.697845,122.907555 490.797546,119.568886 
	C483.537872,117.973740 478.915497,118.851318 476.331512,125.315567 
	C474.814850,129.109726 472.144409,132.442688 469.301392,135.909088 
	C466.212708,131.173569 463.210510,126.377663 459.976166,121.743790 
	C459.139343,120.544952 457.636261,119.175308 456.332947,119.057213 
	C452.427856,118.703362 448.470123,118.929916 443.683502,118.929916 
	C448.541443,126.621536 452.529755,133.927155 457.499054,140.489975 
	C461.460175,145.721298 461.387085,149.604431 457.406219,154.785034 
	C452.412872,161.283157 448.407410,168.540375 443.631714,176.007645 
	C445.743011,176.007645 446.935059,175.836411 448.061584,176.035645 
	C454.994690,177.261749 459.584991,174.874557 462.438873,168.154648 
	C463.887848,164.742874 466.881042,161.986908 469.375153,159.582932 
M94.075905,129.150482 
	C90.943108,121.502724 87.851685,113.837288 84.604378,106.238472 
	C84.323730,105.581749 83.025848,105.036331 82.177803,105.002159 
	C78.734688,104.863441 75.282715,104.944481 71.600204,104.944481 
	C71.600204,128.837219 71.600204,152.203796 71.600204,175.759674 
	C75.807373,175.759674 79.713074,175.759674 84.104553,175.759674 
	C84.104553,162.349319 84.104553,149.183914 84.104553,136.018494 
	C84.384956,135.960312 84.665352,135.902115 84.945755,135.843933 
	C86.951004,139.923965 88.956253,144.003998 91.018730,148.815582 
	C94.630173,157.008423 98.399200,165.137192 101.770874,173.427551 
	C103.015541,176.487961 105.181580,175.962143 107.429634,176.009949 
	C109.729332,176.058853 111.863419,176.370285 113.026466,173.363403 
	C115.595062,166.722656 118.554977,160.233292 121.833160,153.116577 
	C124.324379,147.514175 126.815605,141.911774 129.306824,136.309372 
	C129.725113,136.432861 130.143417,136.556351 130.561707,136.679840 
	C130.561707,149.627579 130.561707,162.575333 130.561707,175.742828 
	C134.923660,175.742828 138.824280,175.742828 142.873566,175.742828 
	C142.873566,152.097855 142.873566,128.713440 142.873566,104.958649 
	C139.267670,104.958649 135.952576,104.797478 132.670166,105.054085 
	C131.648056,105.133987 130.237579,106.129959 129.814285,107.070747 
	C125.793785,116.006470 121.947784,125.020699 117.578278,134.524887 
	C114.284164,141.846970 110.990051,149.169037 107.352203,157.255173 
	C103.983299,149.679123 101.027061,142.843185 97.892159,136.090164 
	C96.887939,133.926926 95.411156,131.983047 94.075905,129.150482 
z"/>
<path fill="#7960F2" opacity="1.000000" stroke="none" 
	d="
M118.051590,134.012344 
	C121.947784,125.020699 125.793785,116.006470 129.814285,107.070747 
	C130.237579,106.129959 131.648056,105.133987 132.670166,105.054085 
	C135.952576,104.797478 139.267670,104.958649 142.873566,104.958649 
	C142.873566,128.713440 142.873566,152.097855 142.873566,175.742828 
	C138.824280,175.742828 134.923660,175.742828 130.561707,175.742828 
	C130.561707,162.575333 130.561707,149.627579 130.561707,136.679840 
	C130.143417,136.556351 129.725113,136.432861 129.306824,136.309372 
	C126.815605,141.911774 124.324379,147.514175 121.407166,152.971985 
	C120.652924,148.630737 120.479820,144.413681 119.931839,140.245926 
	C119.652634,138.122375 118.699890,136.087372 118.051590,134.012344 
z"/>
<path fill="#6562EB" opacity="1.000000" stroke="none" 
	d="
M90.961502,148.084030 
	C88.956253,144.003998 86.951004,139.923965 84.945755,135.843933 
	C84.665352,135.902115 84.384956,135.960312 84.104553,136.018494 
	C84.104553,149.183914 84.104553,162.349319 84.104553,175.759674 
	C79.713074,175.759674 75.807373,175.759674 71.600204,175.759674 
	C71.600204,152.203796 71.600204,128.837219 71.600204,104.944481 
	C75.282715,104.944481 78.734688,104.863441 82.177803,105.002159 
	C83.025848,105.036331 84.323730,105.581749 84.604378,106.238472 
	C87.851685,113.837288 90.943108,121.502724 93.759552,129.723907 
	C92.960968,132.296448 92.288239,134.271957 92.037186,136.299698 
	C91.552780,140.212234 91.306503,144.154236 90.961502,148.084030 
z"/>
<path fill="#B650DA" opacity="1.000000" stroke="none" 
	d="
M341.817688,172.589844 
	C340.647583,172.024887 339.477478,171.459930 337.945160,170.720108 
	C337.843201,172.500839 337.761719,173.923492 337.661194,175.679367 
	C333.641815,175.679367 329.591980,175.679367 325.301147,175.679367 
	C325.301147,150.608017 325.301147,125.715378 325.301147,100.485931 
	C329.366821,100.485931 333.270874,100.485931 337.535187,100.485931 
	C337.535187,107.886971 337.535187,115.282425 337.535187,123.459564 
	C339.749695,122.198799 341.506989,121.198349 343.632263,120.598022 
	C344.373596,124.441063 344.746918,127.883965 344.932678,131.595123 
	C342.608063,135.283707 339.613953,138.452454 338.520050,142.178986 
	C336.510620,149.024185 338.707703,155.437805 343.002045,161.529694 
	C342.607422,165.514008 342.212555,169.051926 341.817688,172.589844 
z"/>
<path fill="#8C5AF1" opacity="1.000000" stroke="none" 
	d="
M186.005981,163.272736 
	C190.507309,159.888901 192.003464,155.163269 192.007355,149.783142 
	C192.014679,139.676483 192.009476,129.569824 192.009476,119.192856 
	C196.362473,119.192856 200.279282,119.192856 204.542480,119.192856 
	C204.542480,137.928818 204.542480,156.626160 204.542480,175.666840 
	C200.646606,175.666840 196.731949,175.666840 192.443268,175.666840 
	C192.214615,174.744293 191.919769,173.554688 191.514648,171.920151 
	C190.191055,172.593552 188.958542,173.220596 187.371857,173.544250 
	C186.680466,169.918152 186.343216,166.595444 186.005981,163.272736 
z"/>
<path fill="#A454F3" opacity="1.000000" stroke="none" 
	d="
M281.997467,175.010056 
	C270.196777,172.300644 262.222290,160.836060 262.340515,146.750076 
	C262.463379,132.110596 269.272552,122.850960 283.632935,118.737083 
	C284.407196,122.667854 284.816986,126.152252 284.920776,129.794312 
	C279.495087,131.682861 277.045685,135.540405 275.640381,140.758057 
	C278.073242,140.911713 280.037262,141.035751 282.000885,141.606079 
	C282.000427,145.339890 282.000336,148.627396 282.000275,151.914917 
	C280.051910,152.047668 278.103546,152.180405 275.841217,152.334549 
	C275.947693,157.949951 279.369904,160.978516 283.485046,163.985703 
	C282.941681,167.987854 282.469574,171.498947 281.997467,175.010056 
z"/>
<path fill="#DF49A4" opacity="1.000000" stroke="none" 
	d="
M469.176117,158.934479 
	C466.881042,161.986908 463.887848,164.742874 462.438873,168.154648 
	C459.584991,174.874557 454.994690,177.261749 448.061584,176.035645 
	C446.935059,175.836411 445.743011,176.007645 443.631714,176.007645 
	C448.407410,168.540375 452.412872,161.283157 457.406219,154.785034 
	C461.387085,149.604431 461.460175,145.721298 457.499054,140.489975 
	C452.529755,133.927155 448.541443,126.621536 443.683502,118.929916 
	C448.470123,118.929916 452.427856,118.703362 456.332947,119.057213 
	C457.636261,119.175308 459.139343,120.544952 459.976166,121.743790 
	C463.210510,126.377663 466.212708,131.173569 469.648621,136.415680 
	C469.722595,144.259674 469.449371,151.597076 469.176117,158.934479 
z"/>
<path fill="#6F61EE" opacity="1.000000" stroke="none" 
	d="
M90.990112,148.449799 
	C91.306503,144.154236 91.552780,140.212234 92.037186,136.299698 
	C92.288239,134.271957 92.960968,132.296448 93.796883,130.118073 
	C95.411156,131.983047 96.887939,133.926926 97.892159,136.090164 
	C101.027061,142.843185 103.983299,149.679123 107.352203,157.255173 
	C110.990051,149.169037 114.284164,141.846970 117.814941,134.268616 
	C118.699890,136.087372 119.652634,138.122375 119.931839,140.245926 
	C120.479820,144.413681 120.652924,148.630737 121.168205,153.254776 
	C118.554977,160.233292 115.595062,166.722656 113.026466,173.363403 
	C111.863419,176.370285 109.729332,176.058853 107.429634,176.009949 
	C105.181580,175.962143 103.015541,176.487961 101.770874,173.427551 
	C98.399200,165.137192 94.630173,157.008423 90.990112,148.449799 
z"/>
<path fill="#E5489B" opacity="1.000000" stroke="none" 
	d="
M469.275635,159.258698 
	C469.449371,151.597076 469.722595,144.259674 469.994415,136.452698 
	C472.144409,132.442688 474.814850,129.109726 476.331512,125.315567 
	C478.915497,118.851318 483.537872,117.973740 490.797546,119.568886 
	C489.697845,122.907555 489.081726,126.393295 487.465973,129.328842 
	C484.586029,134.561127 480.939819,139.368591 477.981750,144.563080 
	C477.221222,145.898605 477.181976,148.380112 477.927521,149.708984 
	C480.918243,155.039536 484.599548,159.987122 487.515137,165.353561 
	C489.134247,168.333633 489.745911,171.861008 491.091461,176.003250 
	C486.831726,176.003250 484.027374,176.184036 481.268646,175.908463 
	C480.257751,175.807480 479.059113,174.820618 478.452423,173.903076 
	C475.335968,169.189667 472.384338,164.367264 469.275635,159.258698 
z"/>
<path fill="#C34EC9" opacity="1.000000" stroke="none" 
	d="
M364.996887,119.198807 
	C376.351654,123.587723 382.717834,133.805923 382.466980,147.239639 
	C382.211182,160.938126 375.548950,170.872879 363.403137,174.642700 
	C362.601654,170.419968 362.179962,166.656143 361.947388,162.607269 
	C371.510773,154.487076 372.201630,142.585907 364.038757,131.927582 
	C364.465607,127.416603 364.731262,123.307709 364.996887,119.198807 
z"/>
<path fill="#D64AAE" opacity="1.000000" stroke="none" 
	d="
M424.995544,119.150764 
	C437.282928,124.005325 443.691162,133.274811 443.862152,146.441299 
	C444.034973,159.753296 437.314423,169.738358 424.359924,174.429779 
	C423.654175,170.279892 423.309998,166.579803 423.151733,162.602875 
	C432.994690,154.709320 433.659821,142.391037 424.976562,131.611816 
	C424.986633,127.147148 424.991089,123.148956 424.995544,119.150764 
z"/>
<path fill="#CB4DBF" opacity="1.000000" stroke="none" 
	d="
M403.815430,174.090164 
	C400.686523,172.083557 397.093231,170.546677 394.507660,167.990479 
	C382.095154,155.718979 383.346039,126.305397 405.641663,119.496475 
	C406.645630,123.476311 407.285187,126.984863 407.645386,130.716156 
	C397.649048,138.119186 396.698669,151.174088 405.104675,162.137085 
	C404.658203,166.440521 404.236816,170.265335 403.815430,174.090164 
z"/>
<path fill="#825EF2" opacity="1.000000" stroke="none" 
	d="
M166.842209,174.074417 
	C158.506775,170.960526 154.550552,164.265259 154.128448,156.053375 
	C153.506210,143.947586 153.967834,131.786087 153.967834,119.286293 
	C157.879517,119.286293 161.758255,119.286293 166.217178,119.286293 
	C166.217178,128.961136 165.967148,138.570648 166.335983,148.156372 
	C166.490952,152.183884 167.954834,156.160995 168.892410,160.939651 
	C168.254852,165.836990 167.548538,169.955704 166.842209,174.074417 
z"/>
<path fill="#9C56F3" opacity="1.000000" stroke="none" 
	d="
M234.008514,140.972153 
	C238.840637,142.496964 243.871887,143.577484 248.464828,145.635971 
	C259.118469,150.410721 260.276001,164.568375 250.820129,171.905121 
	C246.133942,175.541077 240.691330,176.617950 234.453583,175.757004 
	C234.009659,171.816330 234.006210,168.468735 234.002762,165.121140 
	C238.268204,164.818665 243.877457,165.359360 244.285492,159.749832 
	C244.732407,153.605682 238.078293,154.728455 234.173615,152.118195 
	C233.942993,147.946350 233.975754,144.459259 234.008514,140.972153 
z"/>
<path fill="#9457F1" opacity="1.000000" stroke="none" 
	d="
M233.740234,140.739563 
	C233.975754,144.459259 233.942993,147.946350 233.883270,151.917725 
	C231.320908,151.679825 228.728577,151.112961 226.260239,150.207916 
	C216.776123,146.730530 212.831970,141.033813 213.802811,132.451584 
	C214.628433,125.152893 221.208282,119.228088 229.923492,117.973297 
	C231.066406,117.808739 232.230835,117.793533 233.701874,118.266098 
	C234.013580,122.166496 234.008728,125.509956 234.003876,128.853394 
	C233.028763,129.039490 231.818344,128.926117 231.125015,129.470856 
	C229.416443,130.813278 226.852707,132.352142 226.692108,134.011337 
	C226.537582,135.607635 228.830902,137.585815 230.320694,139.134567 
	C231.054092,139.896973 232.402069,140.068222 233.740234,140.739563 
z"/>
<path fill="#B052E6" opacity="1.000000" stroke="none" 
	d="
M301.966858,120.095573 
	C314.016876,125.065186 319.893066,137.617096 316.687103,152.079987 
	C311.156403,152.079987 305.538940,152.079987 299.460724,151.546814 
	C298.999146,147.729965 298.998322,144.446304 299.431519,141.092117 
	C301.301086,140.947464 302.736664,140.873306 305.913910,140.709198 
	C303.065460,136.863800 300.927277,133.977264 299.138458,130.918427 
	C300.314148,127.195930 301.140503,123.645752 301.966858,120.095573 
z"/>
<path fill="#9C56F3" opacity="1.000000" stroke="none" 
	d="
M234.391937,128.922409 
	C234.008728,125.509956 234.013580,122.166496 234.026138,118.361664 
	C250.487350,117.513840 256.472229,126.619606 256.630737,137.844559 
	C252.692200,137.844559 248.751617,137.844559 244.367249,137.844559 
	C243.707016,132.444885 240.652252,129.139908 234.391937,128.922409 
z"/>
<path fill="#9457F1" opacity="1.000000" stroke="none" 
	d="
M233.657715,165.008057 
	C234.006210,168.468735 234.009659,171.816330 234.019012,175.625000 
	C221.206223,175.900284 213.555069,168.952728 212.669312,156.354355 
	C216.731934,156.354355 220.779266,156.354355 225.126266,156.354355 
	C226.048874,160.742081 228.326035,164.153000 233.657715,165.008057 
z"/>
<path fill="#BE4FD0" opacity="1.000000" stroke="none" 
	d="
M364.646545,119.027664 
	C364.731262,123.307709 364.465607,127.416603 363.676758,131.830414 
	C357.317108,127.969795 351.281158,128.254593 345.120239,131.326874 
	C344.746918,127.883965 344.373596,124.441063 343.999542,120.553680 
	C350.581848,116.730179 357.364227,116.581711 364.646545,119.027664 
z"/>
<path fill="#BE4FD0" opacity="1.000000" stroke="none" 
	d="
M361.758270,162.892319 
	C362.179962,166.656143 362.601654,170.419968 363.030396,174.649597 
	C355.814514,177.564377 348.931213,176.652206 342.070038,172.806259 
	C342.212555,169.051926 342.607422,165.514008 343.358704,161.555954 
	C349.355225,165.566193 355.436127,165.468216 361.758270,162.892319 
z"/>
<path fill="#B052E6" opacity="1.000000" stroke="none" 
	d="
M296.966370,163.984741 
	C297.979584,163.151657 299.505768,162.519989 299.924530,161.453506 
	C303.173126,153.179886 310.058899,155.021103 317.090179,155.240997 
	C314.365631,164.836349 309.537476,172.034134 299.382385,174.599030 
	C298.327179,170.753082 297.646759,167.368912 296.966370,163.984741 
z"/>
<path fill="#D04CB8" opacity="1.000000" stroke="none" 
	d="
M404.085022,174.351517 
	C404.236816,170.265335 404.658203,166.440521 405.452820,162.271484 
	C411.347992,165.687057 417.104126,165.233078 422.965820,162.879715 
	C423.309998,166.579803 423.654175,170.279892 423.997375,174.425934 
	C417.416718,177.246597 410.874329,176.791092 404.085022,174.351517 
z"/>
<path fill="#D04CB8" opacity="1.000000" stroke="none" 
	d="
M407.924744,130.493423 
	C407.285187,126.984863 406.645630,123.476311 406.008118,119.504845 
	C412.075104,116.586502 418.177338,116.969337 424.647064,118.976295 
	C424.991089,123.148956 424.986633,127.147148 424.627747,131.497589 
	C419.073792,128.384399 413.595734,128.276108 407.924744,130.493423 
z"/>
<path fill="#865CF1" opacity="1.000000" stroke="none" 
	d="
M167.098816,174.347809 
	C167.548538,169.955704 168.254852,165.836990 169.003738,161.296127 
	C173.921066,165.104126 179.339798,165.936081 185.645935,163.373199 
	C186.343216,166.595444 186.680466,169.918152 187.024887,173.673004 
	C180.559464,177.566376 173.977173,176.845642 167.098816,174.347809 
z"/>
<path fill="#AA53EF" opacity="1.000000" stroke="none" 
	d="
M296.558594,164.012573 
	C297.646759,167.368912 298.327179,170.753082 299.009399,174.585663 
	C293.545990,175.177994 288.080750,175.321945 282.306488,175.237976 
	C282.469574,171.498947 282.941681,167.987854 283.711761,164.235687 
	C288.056763,164.009888 292.103790,164.025162 296.558594,164.012573 
z"/>
<path fill="#AA53EF" opacity="1.000000" stroke="none" 
	d="
M301.673798,119.864212 
	C301.140503,123.645752 300.314148,127.195930 298.766174,130.848999 
	C293.771973,130.513489 289.499359,130.075073 285.226746,129.636658 
	C284.816986,126.152252 284.407196,122.667854 283.996490,118.746628 
	C289.790588,118.750816 295.585663,119.191841 301.673798,119.864212 
z"/>
<path fill="#AA53EF" opacity="1.000000" stroke="none" 
	d="
M298.997498,141.162628 
	C298.998322,144.446304 298.999146,147.729965 298.999237,151.462616 
	C293.639954,151.967636 288.281372,152.023682 282.461548,151.997314 
	C282.000336,148.627396 282.000427,145.339890 282.463928,141.537048 
	C288.284027,141.068695 293.640778,141.115662 298.997498,141.162628 
z"/>
<path fill="#0C0A0E" opacity="1.000000" stroke="none" 
	d="
M361.947388,162.607269 
	C355.436127,165.468216 349.355225,165.566193 343.358459,161.109558 
	C338.707703,155.437805 336.510620,149.024185 338.520050,142.178986 
	C339.613953,138.452454 342.608063,135.283707 344.932678,131.595123 
	C351.281158,128.254593 357.317108,127.969795 363.515564,132.232498 
	C372.201630,142.585907 371.510773,154.487076 361.947388,162.607269 
z"/>
<path fill="#0C0A0E" opacity="1.000000" stroke="none" 
	d="
M299.431519,141.092117 
	C293.640778,141.115662 288.284027,141.068695 282.464294,141.090759 
	C280.037262,141.035751 278.073242,140.911713 275.640381,140.758057 
	C277.045685,135.540405 279.495087,131.682861 284.920776,129.794312 
	C289.499359,130.075073 293.771973,130.513489 298.416870,131.021332 
	C300.927277,133.977264 303.065460,136.863800 305.913910,140.709198 
	C302.736664,140.873306 301.301086,140.947464 299.431519,141.092117 
z"/>
<path fill="#0C0A0E" opacity="1.000000" stroke="none" 
	d="
M407.645386,130.716156 
	C413.595734,128.276108 419.073792,128.384399 424.622131,131.964050 
	C433.659821,142.391037 432.994690,154.709320 423.151764,162.602875 
	C417.104126,165.233078 411.347992,165.687057 405.477844,161.792877 
	C396.698669,151.174088 397.649048,138.119186 407.645386,130.716156 
z"/>
</svg>