<svg width="147" height="37" viewBox="0 0 147 37" fill="none" xmlns="http://www.w3.org/2000/svg">
<path d="M2.78125 3.90723H8.23774V6.56786H3.80357C3.23945 6.56786 2.78125 6.10964 2.78125 5.54549V3.90723Z" fill="#EF4123"/>
<path d="M0 1.24658H1.77367C2.33779 1.24658 2.79599 1.7048 2.79599 2.26895V3.90721H0V1.24658Z" fill="#EF4123"/>
<path d="M28.6375 30.09C29.1326 29.8338 29.5588 29.5086 29.9209 29.112C30.2806 28.7153 30.5589 28.262 30.7535 27.7521C30.9482 27.2421 31.0467 26.6878 31.0467 26.0867C31.0467 25.2467 30.8964 24.5224 30.5959 23.9163C30.2954 23.3078 29.8643 22.8102 29.3026 22.421C28.7409 22.0317 28.0586 21.7435 27.2555 21.5538C26.4524 21.3666 25.5557 21.2729 24.5679 21.2729H8.23291V36.1454H13.6327V30.9941L20.922 30.9498L25.3094 36.2144H31.9458L26.9968 30.6344C27.5954 30.5285 28.1448 30.3487 28.6399 30.0949L28.6375 30.09ZM25.2626 27.4244C25.0064 27.6412 24.6541 27.7496 24.2058 27.7496H13.6327V25.1161H24.2058C24.6418 25.1161 24.9891 25.2171 25.2527 25.4191C25.5138 25.6211 25.6469 25.9635 25.6469 26.4415C25.6469 26.8775 25.5188 27.2027 25.265 27.4195L25.2626 27.4244Z" fill="white"/>
<path d="M45.8249 21.248C43.4551 21.248 41.2602 22.4995 40.0531 24.5393L33.1826 36.1427H39.0554L45.5564 24.5122H46.0959L52.619 36.1427H58.4672L51.5967 24.5393C50.3896 22.4995 48.1947 21.248 45.8225 21.248H45.8249Z" fill="white"/>
<path d="M66.1506 25.7713C66.7591 25.4856 67.5153 25.2836 68.4219 25.1628C69.3284 25.0421 70.3754 24.983 71.5603 24.983C73.5261 24.983 75.0879 25.1456 76.2507 25.4659C77.4134 25.7886 78.182 26.3774 78.5564 27.2322H83.6409C83.4611 26.1064 83.0522 25.1481 82.4141 24.3523C81.7761 23.5566 80.941 22.9087 79.9064 22.4061C78.8717 21.9036 77.6499 21.5365 76.2383 21.3025C74.8293 21.0709 73.2674 20.9526 71.5578 20.9526C69.6832 20.9526 67.9686 21.0906 66.4167 21.369C64.8647 21.6474 63.5344 22.0957 62.4234 22.719C61.3124 23.3423 60.4502 24.1429 59.8368 25.1259C59.221 26.1088 58.9155 27.2963 58.9155 28.6931C58.9155 30.0899 59.2235 31.2774 59.8368 32.2603C60.4527 33.2433 61.3149 34.0464 62.4234 34.6672C63.532 35.2905 64.8647 35.7389 66.4167 36.0172C67.9686 36.2956 69.6832 36.4336 71.5578 36.4336C73.2674 36.4336 74.8268 36.3178 76.2383 36.0837C77.6474 35.8522 78.8717 35.4802 79.9064 34.9702C80.941 34.4603 81.7761 33.8074 82.4141 33.0142C83.0522 32.2184 83.4611 31.2601 83.6409 30.1343H78.5564C78.182 30.9891 77.4134 31.5779 76.2507 31.9006C75.0879 32.2234 73.5236 32.3835 71.5603 32.3835C70.3754 32.3835 69.3284 32.3244 68.4219 32.2037C67.5129 32.0829 66.7566 31.8859 66.1506 31.6075C65.5421 31.3291 65.0864 30.9522 64.7785 30.4718C64.4705 29.9914 64.3178 29.3928 64.3178 28.6709C64.3178 27.9491 64.4705 27.3776 64.7785 26.9046C65.0864 26.4316 65.5421 26.0522 66.1506 25.7689V25.7713Z" fill="white"/>
<path d="M91.5165 21.2705H86.1167V36.1429H91.5165V21.2705Z" fill="white"/>
<path d="M100.156 30.9224V21.248H94.7781V36.1427H100.156L113.811 26.4683V36.1427H119.21V21.248H113.811L100.156 30.9224Z" fill="white"/>
<path d="M141.595 30.0456C141.595 30.526 141.408 30.9152 141.034 31.2158C140.659 31.5163 140.144 31.7528 139.492 31.9253C138.839 32.0977 138.083 32.2184 137.22 32.2849C136.358 32.3514 135.439 32.3859 134.464 32.3859C133.279 32.3859 132.232 32.3268 131.325 32.2061C130.419 32.0854 129.658 31.8834 129.042 31.5976C128.426 31.3118 127.965 30.9349 127.657 30.4619C127.349 29.9889 127.197 29.4075 127.197 28.7177C127.197 28.0279 127.349 27.4194 127.657 26.9415C127.965 26.4611 128.426 26.0743 129.042 25.7836C129.658 25.4905 130.419 25.286 131.325 25.1653C132.232 25.0446 133.279 24.9854 134.464 24.9854C135.439 24.9854 136.358 25.0273 137.22 25.1086C138.083 25.1899 138.841 25.3229 139.492 25.5028C140.144 25.6826 140.657 25.9167 141.034 26.2C141.408 26.4857 141.595 26.8306 141.595 27.2347H146.995C146.815 26.1088 146.384 25.1505 145.702 24.3548C145.02 23.559 144.13 22.9111 143.037 22.4086C141.94 21.906 140.667 21.5389 139.213 21.3049C137.757 21.0733 136.176 20.9551 134.466 20.9551C132.592 20.9551 130.877 21.098 129.325 21.3813C127.773 21.667 126.438 22.1154 125.32 22.7313C124.201 23.3472 123.336 24.1454 122.721 25.1283C122.105 26.1113 121.799 27.2913 121.799 28.6709C121.799 30.0505 122.107 31.2552 122.721 32.2357C123.336 33.2186 124.201 34.0217 125.32 34.6425C126.435 35.2658 127.771 35.7191 129.325 36.0024C130.877 36.2882 132.592 36.4286 134.466 36.4286C135.53 36.4286 136.469 36.3793 137.279 36.2833C138.09 36.1847 138.797 36.0369 139.405 35.8324C140.014 35.6304 140.521 35.3742 140.935 35.0687C141.347 34.7608 141.689 34.3987 141.96 33.9774L142.995 36.1379H147V29.0971H141.6V30.0431L141.595 30.0456Z" fill="white"/>
<path d="M38.9198 9.71623L46.2091 9.67189L50.5964 14.9365H57.2329L52.2839 9.35655C52.8825 9.25062 53.4318 9.07078 53.927 8.81704C54.4221 8.56083 54.8483 8.23564 55.2104 7.83901C55.5701 7.44238 55.8485 6.98908 56.0431 6.47913C56.2377 5.96918 56.3362 5.41488 56.3362 4.81377C56.3362 3.9737 56.186 3.24942 55.8854 2.64339C55.5849 2.03489 55.1538 1.53725 54.5921 1.14801C54.0305 0.758773 53.3481 0.470538 52.545 0.280844C51.7419 0.0936148 50.8452 0 49.8574 0H33.5249V14.87H38.9247V9.71869L38.9198 9.71623ZM38.9198 3.84313H49.4928C49.9289 3.84313 50.2762 3.94414 50.5398 4.14615C50.8009 4.34816 50.9339 4.69059 50.9339 5.16852C50.9339 5.60457 50.8058 5.92976 50.5521 6.14655C50.2959 6.36334 49.9436 6.47174 49.4953 6.47174H38.9223V3.8456L38.9198 3.84313Z" fill="white"/>
<path d="M13.6327 10.4603L24.5654 10.416C25.5557 10.416 26.4524 10.3076 27.253 10.0908C28.0561 9.87399 28.7385 9.55126 29.3001 9.12261C29.8618 8.69641 30.2929 8.16182 30.5934 7.52623C30.894 6.88817 31.0442 6.14171 31.0442 5.28686C31.0442 4.43201 30.894 3.65599 30.5934 3.00315C30.2929 2.35031 29.8618 1.80341 29.3001 1.35997C28.7385 0.916529 28.0561 0.586414 27.253 0.369622C26.4499 0.15283 25.5533 0.0444336 24.5654 0.0444336H12.103C9.96716 0.0444336 8.23291 1.77631 8.23291 3.91467H23.9348C25.0901 3.91467 25.6666 4.37289 25.6666 5.28686C25.6666 5.6761 25.5237 5.98897 25.2379 6.22055C24.9522 6.45212 24.5186 6.57037 23.9323 6.57037H8.23291V14.9366H13.6327V10.4603Z" fill="white"/>
<path d="M76.0115 11.7387H66.3696L75.7233 6.97916V3.86523H59.3932V7.06292H68.4389L61.6793 10.5094C60.0904 11.3199 59.1025 12.9311 59.1025 14.7147V14.934H76.014V11.7363L76.0115 11.7387Z" fill="white"/>
</svg>
